M48
; DRILL file {KiCad 8.0.3} date 2024-08-14T21:13:46+0200
; FORMAT={-:-/ absolute / inch / decimal}
; #@! TF.CreationDate,2024-08-14T21:13:46+02:00
; #@! TF.GenerationSoftware,Kicad,Pcbnew,8.0.3
; #@! TF.FileFunction,Plated,1,2,PTH
FMAT,2
INCH
; #@! TA.AperFunction,Plated,PTH,ViaDrill
T1C0.0118
; #@! TA.AperFunction,Plated,PTH,ComponentDrill
T2C0.0394
%
G90
G05
T1
X5.86Y-3.9
X5.86Y-4.1
X5.95Y-2.81
X5.9686Y-2.9477
X5.98Y-2.995
X5.98Y-3.75
X6.03Y-2.81
X6.04Y-3.24
X6.06Y-3.32
X6.06Y-3.87
X6.08Y-3.25
X6.1Y-3.59
X6.12Y-3.2996
X6.165Y-3.58
X6.255Y-3.62
X6.255Y-3.7642
X6.29Y-4.05
X6.305Y-3.4509
X6.3137Y-3.4037
T2
X5.7Y-2.6
X5.7Y-2.7
X5.7Y-2.8
X5.7Y-2.9
X5.7Y-3.0
X5.7Y-3.1
X5.7Y-3.2
X5.7Y-3.3
X5.7Y-3.4
X5.7Y-3.5
X5.7Y-3.6
X5.7Y-3.7
X5.7Y-3.8
X5.7Y-3.9
X5.7Y-4.0
X5.7Y-4.1
X5.9Y-2.6
X5.95Y-4.1
X6.0Y-2.6
X6.05Y-4.1
X6.1Y-2.6
X6.15Y-4.1
X6.2Y-2.6
X6.4Y-2.6
X6.4Y-2.7
X6.4Y-2.8
X6.4Y-2.9
X6.4Y-3.0
X6.4Y-3.1
X6.4Y-3.2
X6.4Y-3.3
X6.4Y-3.4
X6.4Y-3.5
X6.4Y-3.6
X6.4Y-3.7
X6.4Y-3.8
X6.4Y-3.9
X6.4Y-4.0
X6.4Y-4.1
M30
