%TF.GenerationSoftware,KiCad,Pcbnew,8.0.3*%
%TF.CreationDate,2024-08-14T21:13:38+02:00*%
%TF.ProjectId,AVR128 Breakout,41565231-3238-4204-9272-65616b6f7574,rev?*%
%TF.SameCoordinates,Original*%
%TF.FileFunction,Soldermask,Top*%
%TF.FilePolarity,Negative*%
%FSLAX46Y46*%
G04 Gerber Fmt 4.6, Leading zero omitted, Abs format (unit mm)*
G04 Created by KiCad (PCBNEW 8.0.3) date 2024-08-14 21:13:38*
%MOMM*%
%LPD*%
G01*
G04 APERTURE LIST*
G04 Aperture macros list*
%AMRoundRect*
0 Rectangle with rounded corners*
0 $1 Rounding radius*
0 $2 $3 $4 $5 $6 $7 $8 $9 X,Y pos of 4 corners*
0 Add a 4 corners polygon primitive as box body*
4,1,4,$2,$3,$4,$5,$6,$7,$8,$9,$2,$3,0*
0 Add four circle primitives for the rounded corners*
1,1,$1+$1,$2,$3*
1,1,$1+$1,$4,$5*
1,1,$1+$1,$6,$7*
1,1,$1+$1,$8,$9*
0 Add four rect primitives between the rounded corners*
20,1,$1+$1,$2,$3,$4,$5,0*
20,1,$1+$1,$4,$5,$6,$7,0*
20,1,$1+$1,$6,$7,$8,$9,0*
20,1,$1+$1,$8,$9,$2,$3,0*%
G04 Aperture macros list end*
%ADD10R,1.050000X0.650000*%
%ADD11RoundRect,0.250000X-0.450000X0.325000X-0.450000X-0.325000X0.450000X-0.325000X0.450000X0.325000X0*%
%ADD12R,1.000000X1.500000*%
%ADD13R,1.700000X1.700000*%
%ADD14O,1.700000X1.700000*%
%ADD15RoundRect,0.250000X0.337500X0.475000X-0.337500X0.475000X-0.337500X-0.475000X0.337500X-0.475000X0*%
%ADD16RoundRect,0.250000X0.450000X-0.350000X0.450000X0.350000X-0.450000X0.350000X-0.450000X-0.350000X0*%
%ADD17RoundRect,0.150000X0.150000X-0.512500X0.150000X0.512500X-0.150000X0.512500X-0.150000X-0.512500X0*%
G04 APERTURE END LIST*
D10*
%TO.C,SW1*%
X155727000Y-77021000D03*
X151577000Y-77021000D03*
X155727000Y-74871000D03*
X151602000Y-74871000D03*
%TD*%
D11*
%TO.C,D1*%
X155448000Y-84065000D03*
X155448000Y-86115000D03*
%TD*%
D12*
%TO.C,JP1*%
X152370000Y-89408000D03*
X153670000Y-89408000D03*
X154970000Y-89408000D03*
%TD*%
D13*
%TO.C,J1*%
X156210000Y-104140000D03*
D14*
X153670000Y-104140000D03*
X151130000Y-104140000D03*
%TD*%
D13*
%TO.C,J2*%
X149860000Y-66040000D03*
D14*
X152400000Y-66040000D03*
X154940000Y-66040000D03*
X157480000Y-66040000D03*
%TD*%
D15*
%TO.C,C3*%
X154707500Y-80772000D03*
X152632500Y-80772000D03*
%TD*%
D16*
%TO.C,R2*%
X151892000Y-86090000D03*
X151892000Y-84090000D03*
%TD*%
D17*
%TO.C,U3*%
X152720000Y-96133500D03*
X153670000Y-96133500D03*
X154620000Y-96133500D03*
X154620000Y-93858500D03*
X152720000Y-93858500D03*
%TD*%
D13*
%TO.C,J4*%
X162560000Y-66040000D03*
D14*
X162560000Y-68580000D03*
X162560000Y-71120000D03*
X162560000Y-73660000D03*
X162560000Y-76200000D03*
X162560000Y-78740000D03*
X162560000Y-81280000D03*
X162560000Y-83820000D03*
X162560000Y-86360000D03*
X162560000Y-88900000D03*
X162560000Y-91440000D03*
X162560000Y-93980000D03*
X162560000Y-96520000D03*
X162560000Y-99060000D03*
X162560000Y-101600000D03*
X162560000Y-104140000D03*
%TD*%
D13*
%TO.C,J3*%
X144780000Y-66040000D03*
D14*
X144780000Y-68580000D03*
X144780000Y-71120000D03*
X144780000Y-73660000D03*
X144780000Y-76200000D03*
X144780000Y-78740000D03*
X144780000Y-81280000D03*
X144780000Y-83820000D03*
X144780000Y-86360000D03*
X144780000Y-88900000D03*
X144780000Y-91440000D03*
X144780000Y-93980000D03*
X144780000Y-96520000D03*
X144780000Y-99060000D03*
X144780000Y-101600000D03*
X144780000Y-104140000D03*
%TD*%
M02*
