%TF.GenerationSoftware,KiCad,Pcbnew,8.0.3*%
%TF.CreationDate,2024-08-14T21:13:38+02:00*%
%TF.ProjectId,AVR128 Breakout,41565231-3238-4204-9272-65616b6f7574,rev?*%
%TF.SameCoordinates,Original*%
%TF.FileFunction,Legend,Bot*%
%TF.FilePolarity,Positive*%
%FSLAX46Y46*%
G04 Gerber Fmt 4.6, Leading zero omitted, Abs format (unit mm)*
G04 Created by KiCad (PCBNEW 8.0.3) date 2024-08-14 21:13:38*
%MOMM*%
%LPD*%
G01*
G04 APERTURE LIST*
%ADD10C,0.150000*%
%ADD11C,0.120000*%
G04 APERTURE END LIST*
D10*
X158333839Y-75444160D02*
X157857649Y-75444160D01*
X158429077Y-75729875D02*
X158095744Y-74729875D01*
X158095744Y-74729875D02*
X157762411Y-75729875D01*
X157571934Y-74729875D02*
X157238601Y-75729875D01*
X157238601Y-75729875D02*
X156905268Y-74729875D01*
X156000506Y-75729875D02*
X156333839Y-75253684D01*
X156571934Y-75729875D02*
X156571934Y-74729875D01*
X156571934Y-74729875D02*
X156190982Y-74729875D01*
X156190982Y-74729875D02*
X156095744Y-74777494D01*
X156095744Y-74777494D02*
X156048125Y-74825113D01*
X156048125Y-74825113D02*
X156000506Y-74920351D01*
X156000506Y-74920351D02*
X156000506Y-75063208D01*
X156000506Y-75063208D02*
X156048125Y-75158446D01*
X156048125Y-75158446D02*
X156095744Y-75206065D01*
X156095744Y-75206065D02*
X156190982Y-75253684D01*
X156190982Y-75253684D02*
X156571934Y-75253684D01*
X155810030Y-75825113D02*
X155048125Y-75825113D01*
X154476696Y-75206065D02*
X154333839Y-75253684D01*
X154333839Y-75253684D02*
X154286220Y-75301303D01*
X154286220Y-75301303D02*
X154238601Y-75396541D01*
X154238601Y-75396541D02*
X154238601Y-75539398D01*
X154238601Y-75539398D02*
X154286220Y-75634636D01*
X154286220Y-75634636D02*
X154333839Y-75682256D01*
X154333839Y-75682256D02*
X154429077Y-75729875D01*
X154429077Y-75729875D02*
X154810029Y-75729875D01*
X154810029Y-75729875D02*
X154810029Y-74729875D01*
X154810029Y-74729875D02*
X154476696Y-74729875D01*
X154476696Y-74729875D02*
X154381458Y-74777494D01*
X154381458Y-74777494D02*
X154333839Y-74825113D01*
X154333839Y-74825113D02*
X154286220Y-74920351D01*
X154286220Y-74920351D02*
X154286220Y-75015589D01*
X154286220Y-75015589D02*
X154333839Y-75110827D01*
X154333839Y-75110827D02*
X154381458Y-75158446D01*
X154381458Y-75158446D02*
X154476696Y-75206065D01*
X154476696Y-75206065D02*
X154810029Y-75206065D01*
X153810029Y-75729875D02*
X153810029Y-75063208D01*
X153810029Y-75253684D02*
X153762410Y-75158446D01*
X153762410Y-75158446D02*
X153714791Y-75110827D01*
X153714791Y-75110827D02*
X153619553Y-75063208D01*
X153619553Y-75063208D02*
X153524315Y-75063208D01*
X152810029Y-75682256D02*
X152905267Y-75729875D01*
X152905267Y-75729875D02*
X153095743Y-75729875D01*
X153095743Y-75729875D02*
X153190981Y-75682256D01*
X153190981Y-75682256D02*
X153238600Y-75587017D01*
X153238600Y-75587017D02*
X153238600Y-75206065D01*
X153238600Y-75206065D02*
X153190981Y-75110827D01*
X153190981Y-75110827D02*
X153095743Y-75063208D01*
X153095743Y-75063208D02*
X152905267Y-75063208D01*
X152905267Y-75063208D02*
X152810029Y-75110827D01*
X152810029Y-75110827D02*
X152762410Y-75206065D01*
X152762410Y-75206065D02*
X152762410Y-75301303D01*
X152762410Y-75301303D02*
X153238600Y-75396541D01*
X151905267Y-75729875D02*
X151905267Y-75206065D01*
X151905267Y-75206065D02*
X151952886Y-75110827D01*
X151952886Y-75110827D02*
X152048124Y-75063208D01*
X152048124Y-75063208D02*
X152238600Y-75063208D01*
X152238600Y-75063208D02*
X152333838Y-75110827D01*
X151905267Y-75682256D02*
X152000505Y-75729875D01*
X152000505Y-75729875D02*
X152238600Y-75729875D01*
X152238600Y-75729875D02*
X152333838Y-75682256D01*
X152333838Y-75682256D02*
X152381457Y-75587017D01*
X152381457Y-75587017D02*
X152381457Y-75491779D01*
X152381457Y-75491779D02*
X152333838Y-75396541D01*
X152333838Y-75396541D02*
X152238600Y-75348922D01*
X152238600Y-75348922D02*
X152000505Y-75348922D01*
X152000505Y-75348922D02*
X151905267Y-75301303D01*
X151429076Y-75729875D02*
X151429076Y-74729875D01*
X151333838Y-75348922D02*
X151048124Y-75729875D01*
X151048124Y-75063208D02*
X151429076Y-75444160D01*
X150476695Y-75729875D02*
X150571933Y-75682256D01*
X150571933Y-75682256D02*
X150619552Y-75634636D01*
X150619552Y-75634636D02*
X150667171Y-75539398D01*
X150667171Y-75539398D02*
X150667171Y-75253684D01*
X150667171Y-75253684D02*
X150619552Y-75158446D01*
X150619552Y-75158446D02*
X150571933Y-75110827D01*
X150571933Y-75110827D02*
X150476695Y-75063208D01*
X150476695Y-75063208D02*
X150333838Y-75063208D01*
X150333838Y-75063208D02*
X150238600Y-75110827D01*
X150238600Y-75110827D02*
X150190981Y-75158446D01*
X150190981Y-75158446D02*
X150143362Y-75253684D01*
X150143362Y-75253684D02*
X150143362Y-75539398D01*
X150143362Y-75539398D02*
X150190981Y-75634636D01*
X150190981Y-75634636D02*
X150238600Y-75682256D01*
X150238600Y-75682256D02*
X150333838Y-75729875D01*
X150333838Y-75729875D02*
X150476695Y-75729875D01*
X149286219Y-75063208D02*
X149286219Y-75729875D01*
X149714790Y-75063208D02*
X149714790Y-75587017D01*
X149714790Y-75587017D02*
X149667171Y-75682256D01*
X149667171Y-75682256D02*
X149571933Y-75729875D01*
X149571933Y-75729875D02*
X149429076Y-75729875D01*
X149429076Y-75729875D02*
X149333838Y-75682256D01*
X149333838Y-75682256D02*
X149286219Y-75634636D01*
X148952885Y-75063208D02*
X148571933Y-75063208D01*
X148810028Y-74729875D02*
X148810028Y-75587017D01*
X148810028Y-75587017D02*
X148762409Y-75682256D01*
X148762409Y-75682256D02*
X148667171Y-75729875D01*
X148667171Y-75729875D02*
X148571933Y-75729875D01*
X158429077Y-76339819D02*
X158095744Y-77339819D01*
X158095744Y-77339819D02*
X157762411Y-76339819D01*
X156905268Y-77339819D02*
X157476696Y-77339819D01*
X157190982Y-77339819D02*
X157190982Y-76339819D01*
X157190982Y-76339819D02*
X157286220Y-76482676D01*
X157286220Y-76482676D02*
X157381458Y-76577914D01*
X157381458Y-76577914D02*
X157476696Y-76625533D01*
X155762410Y-76435057D02*
X155714791Y-76387438D01*
X155714791Y-76387438D02*
X155619553Y-76339819D01*
X155619553Y-76339819D02*
X155381458Y-76339819D01*
X155381458Y-76339819D02*
X155286220Y-76387438D01*
X155286220Y-76387438D02*
X155238601Y-76435057D01*
X155238601Y-76435057D02*
X155190982Y-76530295D01*
X155190982Y-76530295D02*
X155190982Y-76625533D01*
X155190982Y-76625533D02*
X155238601Y-76768390D01*
X155238601Y-76768390D02*
X155810029Y-77339819D01*
X155810029Y-77339819D02*
X155190982Y-77339819D01*
X154571934Y-76339819D02*
X154476696Y-76339819D01*
X154476696Y-76339819D02*
X154381458Y-76387438D01*
X154381458Y-76387438D02*
X154333839Y-76435057D01*
X154333839Y-76435057D02*
X154286220Y-76530295D01*
X154286220Y-76530295D02*
X154238601Y-76720771D01*
X154238601Y-76720771D02*
X154238601Y-76958866D01*
X154238601Y-76958866D02*
X154286220Y-77149342D01*
X154286220Y-77149342D02*
X154333839Y-77244580D01*
X154333839Y-77244580D02*
X154381458Y-77292200D01*
X154381458Y-77292200D02*
X154476696Y-77339819D01*
X154476696Y-77339819D02*
X154571934Y-77339819D01*
X154571934Y-77339819D02*
X154667172Y-77292200D01*
X154667172Y-77292200D02*
X154714791Y-77244580D01*
X154714791Y-77244580D02*
X154762410Y-77149342D01*
X154762410Y-77149342D02*
X154810029Y-76958866D01*
X154810029Y-76958866D02*
X154810029Y-76720771D01*
X154810029Y-76720771D02*
X154762410Y-76530295D01*
X154762410Y-76530295D02*
X154714791Y-76435057D01*
X154714791Y-76435057D02*
X154667172Y-76387438D01*
X154667172Y-76387438D02*
X154571934Y-76339819D01*
X153857648Y-76435057D02*
X153810029Y-76387438D01*
X153810029Y-76387438D02*
X153714791Y-76339819D01*
X153714791Y-76339819D02*
X153476696Y-76339819D01*
X153476696Y-76339819D02*
X153381458Y-76387438D01*
X153381458Y-76387438D02*
X153333839Y-76435057D01*
X153333839Y-76435057D02*
X153286220Y-76530295D01*
X153286220Y-76530295D02*
X153286220Y-76625533D01*
X153286220Y-76625533D02*
X153333839Y-76768390D01*
X153333839Y-76768390D02*
X153905267Y-77339819D01*
X153905267Y-77339819D02*
X153286220Y-77339819D01*
X152429077Y-76673152D02*
X152429077Y-77339819D01*
X152667172Y-76292200D02*
X152905267Y-77006485D01*
X152905267Y-77006485D02*
X152286220Y-77006485D01*
X157696819Y-103806666D02*
X158411104Y-103806666D01*
X158411104Y-103806666D02*
X158553961Y-103759047D01*
X158553961Y-103759047D02*
X158649200Y-103663809D01*
X158649200Y-103663809D02*
X158696819Y-103520952D01*
X158696819Y-103520952D02*
X158696819Y-103425714D01*
X158696819Y-104806666D02*
X158696819Y-104235238D01*
X158696819Y-104520952D02*
X157696819Y-104520952D01*
X157696819Y-104520952D02*
X157839676Y-104425714D01*
X157839676Y-104425714D02*
X157934914Y-104330476D01*
X157934914Y-104330476D02*
X157982533Y-104235238D01*
X158966819Y-65706666D02*
X159681104Y-65706666D01*
X159681104Y-65706666D02*
X159823961Y-65659047D01*
X159823961Y-65659047D02*
X159919200Y-65563809D01*
X159919200Y-65563809D02*
X159966819Y-65420952D01*
X159966819Y-65420952D02*
X159966819Y-65325714D01*
X159062057Y-66135238D02*
X159014438Y-66182857D01*
X159014438Y-66182857D02*
X158966819Y-66278095D01*
X158966819Y-66278095D02*
X158966819Y-66516190D01*
X158966819Y-66516190D02*
X159014438Y-66611428D01*
X159014438Y-66611428D02*
X159062057Y-66659047D01*
X159062057Y-66659047D02*
X159157295Y-66706666D01*
X159157295Y-66706666D02*
X159252533Y-66706666D01*
X159252533Y-66706666D02*
X159395390Y-66659047D01*
X159395390Y-66659047D02*
X159966819Y-66087619D01*
X159966819Y-66087619D02*
X159966819Y-66706666D01*
X160607333Y-67145819D02*
X160607333Y-67860104D01*
X160607333Y-67860104D02*
X160654952Y-68002961D01*
X160654952Y-68002961D02*
X160750190Y-68098200D01*
X160750190Y-68098200D02*
X160893047Y-68145819D01*
X160893047Y-68145819D02*
X160988285Y-68145819D01*
X159702571Y-67479152D02*
X159702571Y-68145819D01*
X159940666Y-67098200D02*
X160178761Y-67812485D01*
X160178761Y-67812485D02*
X159559714Y-67812485D01*
X147399333Y-66891819D02*
X147399333Y-67606104D01*
X147399333Y-67606104D02*
X147446952Y-67748961D01*
X147446952Y-67748961D02*
X147542190Y-67844200D01*
X147542190Y-67844200D02*
X147685047Y-67891819D01*
X147685047Y-67891819D02*
X147780285Y-67891819D01*
X147018380Y-66891819D02*
X146399333Y-66891819D01*
X146399333Y-66891819D02*
X146732666Y-67272771D01*
X146732666Y-67272771D02*
X146589809Y-67272771D01*
X146589809Y-67272771D02*
X146494571Y-67320390D01*
X146494571Y-67320390D02*
X146446952Y-67368009D01*
X146446952Y-67368009D02*
X146399333Y-67463247D01*
X146399333Y-67463247D02*
X146399333Y-67701342D01*
X146399333Y-67701342D02*
X146446952Y-67796580D01*
X146446952Y-67796580D02*
X146494571Y-67844200D01*
X146494571Y-67844200D02*
X146589809Y-67891819D01*
X146589809Y-67891819D02*
X146875523Y-67891819D01*
X146875523Y-67891819D02*
X146970761Y-67844200D01*
X146970761Y-67844200D02*
X147018380Y-67796580D01*
X148883666Y-103356580D02*
X148931285Y-103404200D01*
X148931285Y-103404200D02*
X149074142Y-103451819D01*
X149074142Y-103451819D02*
X149169380Y-103451819D01*
X149169380Y-103451819D02*
X149312237Y-103404200D01*
X149312237Y-103404200D02*
X149407475Y-103308961D01*
X149407475Y-103308961D02*
X149455094Y-103213723D01*
X149455094Y-103213723D02*
X149502713Y-103023247D01*
X149502713Y-103023247D02*
X149502713Y-102880390D01*
X149502713Y-102880390D02*
X149455094Y-102689914D01*
X149455094Y-102689914D02*
X149407475Y-102594676D01*
X149407475Y-102594676D02*
X149312237Y-102499438D01*
X149312237Y-102499438D02*
X149169380Y-102451819D01*
X149169380Y-102451819D02*
X149074142Y-102451819D01*
X149074142Y-102451819D02*
X148931285Y-102499438D01*
X148931285Y-102499438D02*
X148883666Y-102547057D01*
X147978904Y-102451819D02*
X148455094Y-102451819D01*
X148455094Y-102451819D02*
X148502713Y-102928009D01*
X148502713Y-102928009D02*
X148455094Y-102880390D01*
X148455094Y-102880390D02*
X148359856Y-102832771D01*
X148359856Y-102832771D02*
X148121761Y-102832771D01*
X148121761Y-102832771D02*
X148026523Y-102880390D01*
X148026523Y-102880390D02*
X147978904Y-102928009D01*
X147978904Y-102928009D02*
X147931285Y-103023247D01*
X147931285Y-103023247D02*
X147931285Y-103261342D01*
X147931285Y-103261342D02*
X147978904Y-103356580D01*
X147978904Y-103356580D02*
X148026523Y-103404200D01*
X148026523Y-103404200D02*
X148121761Y-103451819D01*
X148121761Y-103451819D02*
X148359856Y-103451819D01*
X148359856Y-103451819D02*
X148455094Y-103404200D01*
X148455094Y-103404200D02*
X148502713Y-103356580D01*
X154004904Y-91115319D02*
X154004904Y-91924842D01*
X154004904Y-91924842D02*
X153957285Y-92020080D01*
X153957285Y-92020080D02*
X153909666Y-92067700D01*
X153909666Y-92067700D02*
X153814428Y-92115319D01*
X153814428Y-92115319D02*
X153623952Y-92115319D01*
X153623952Y-92115319D02*
X153528714Y-92067700D01*
X153528714Y-92067700D02*
X153481095Y-92020080D01*
X153481095Y-92020080D02*
X153433476Y-91924842D01*
X153433476Y-91924842D02*
X153433476Y-91115319D01*
X152433476Y-92115319D02*
X153004904Y-92115319D01*
X152719190Y-92115319D02*
X152719190Y-91115319D01*
X152719190Y-91115319D02*
X152814428Y-91258176D01*
X152814428Y-91258176D02*
X152909666Y-91353414D01*
X152909666Y-91353414D02*
X153004904Y-91401033D01*
X158872245Y-79695250D02*
X158299825Y-80267670D01*
X158299825Y-80267670D02*
X158198810Y-80301342D01*
X158198810Y-80301342D02*
X158131466Y-80301342D01*
X158131466Y-80301342D02*
X158030451Y-80267670D01*
X158030451Y-80267670D02*
X157895764Y-80132983D01*
X157895764Y-80132983D02*
X157862092Y-80031968D01*
X157862092Y-80031968D02*
X157862092Y-79964624D01*
X157862092Y-79964624D02*
X157895764Y-79863609D01*
X157895764Y-79863609D02*
X158468184Y-79291189D01*
X158097794Y-79055487D02*
X158097794Y-78988144D01*
X158097794Y-78988144D02*
X158064123Y-78887128D01*
X158064123Y-78887128D02*
X157895764Y-78718770D01*
X157895764Y-78718770D02*
X157794749Y-78685098D01*
X157794749Y-78685098D02*
X157727405Y-78685098D01*
X157727405Y-78685098D02*
X157626390Y-78718770D01*
X157626390Y-78718770D02*
X157559046Y-78786113D01*
X157559046Y-78786113D02*
X157491703Y-78920800D01*
X157491703Y-78920800D02*
X157491703Y-79728922D01*
X157491703Y-79728922D02*
X157053970Y-79291189D01*
X156083080Y-72223333D02*
X156130700Y-72175714D01*
X156130700Y-72175714D02*
X156178319Y-72032857D01*
X156178319Y-72032857D02*
X156178319Y-71937619D01*
X156178319Y-71937619D02*
X156130700Y-71794762D01*
X156130700Y-71794762D02*
X156035461Y-71699524D01*
X156035461Y-71699524D02*
X155940223Y-71651905D01*
X155940223Y-71651905D02*
X155749747Y-71604286D01*
X155749747Y-71604286D02*
X155606890Y-71604286D01*
X155606890Y-71604286D02*
X155416414Y-71651905D01*
X155416414Y-71651905D02*
X155321176Y-71699524D01*
X155321176Y-71699524D02*
X155225938Y-71794762D01*
X155225938Y-71794762D02*
X155178319Y-71937619D01*
X155178319Y-71937619D02*
X155178319Y-72032857D01*
X155178319Y-72032857D02*
X155225938Y-72175714D01*
X155225938Y-72175714D02*
X155273557Y-72223333D01*
X155273557Y-72604286D02*
X155225938Y-72651905D01*
X155225938Y-72651905D02*
X155178319Y-72747143D01*
X155178319Y-72747143D02*
X155178319Y-72985238D01*
X155178319Y-72985238D02*
X155225938Y-73080476D01*
X155225938Y-73080476D02*
X155273557Y-73128095D01*
X155273557Y-73128095D02*
X155368795Y-73175714D01*
X155368795Y-73175714D02*
X155464033Y-73175714D01*
X155464033Y-73175714D02*
X155606890Y-73128095D01*
X155606890Y-73128095D02*
X156178319Y-72556667D01*
X156178319Y-72556667D02*
X156178319Y-73175714D01*
X160760580Y-92670333D02*
X160808200Y-92622714D01*
X160808200Y-92622714D02*
X160855819Y-92479857D01*
X160855819Y-92479857D02*
X160855819Y-92384619D01*
X160855819Y-92384619D02*
X160808200Y-92241762D01*
X160808200Y-92241762D02*
X160712961Y-92146524D01*
X160712961Y-92146524D02*
X160617723Y-92098905D01*
X160617723Y-92098905D02*
X160427247Y-92051286D01*
X160427247Y-92051286D02*
X160284390Y-92051286D01*
X160284390Y-92051286D02*
X160093914Y-92098905D01*
X160093914Y-92098905D02*
X159998676Y-92146524D01*
X159998676Y-92146524D02*
X159903438Y-92241762D01*
X159903438Y-92241762D02*
X159855819Y-92384619D01*
X159855819Y-92384619D02*
X159855819Y-92479857D01*
X159855819Y-92479857D02*
X159903438Y-92622714D01*
X159903438Y-92622714D02*
X159951057Y-92670333D01*
X160284390Y-93241762D02*
X160236771Y-93146524D01*
X160236771Y-93146524D02*
X160189152Y-93098905D01*
X160189152Y-93098905D02*
X160093914Y-93051286D01*
X160093914Y-93051286D02*
X160046295Y-93051286D01*
X160046295Y-93051286D02*
X159951057Y-93098905D01*
X159951057Y-93098905D02*
X159903438Y-93146524D01*
X159903438Y-93146524D02*
X159855819Y-93241762D01*
X159855819Y-93241762D02*
X159855819Y-93432238D01*
X159855819Y-93432238D02*
X159903438Y-93527476D01*
X159903438Y-93527476D02*
X159951057Y-93575095D01*
X159951057Y-93575095D02*
X160046295Y-93622714D01*
X160046295Y-93622714D02*
X160093914Y-93622714D01*
X160093914Y-93622714D02*
X160189152Y-93575095D01*
X160189152Y-93575095D02*
X160236771Y-93527476D01*
X160236771Y-93527476D02*
X160284390Y-93432238D01*
X160284390Y-93432238D02*
X160284390Y-93241762D01*
X160284390Y-93241762D02*
X160332009Y-93146524D01*
X160332009Y-93146524D02*
X160379628Y-93098905D01*
X160379628Y-93098905D02*
X160474866Y-93051286D01*
X160474866Y-93051286D02*
X160665342Y-93051286D01*
X160665342Y-93051286D02*
X160760580Y-93098905D01*
X160760580Y-93098905D02*
X160808200Y-93146524D01*
X160808200Y-93146524D02*
X160855819Y-93241762D01*
X160855819Y-93241762D02*
X160855819Y-93432238D01*
X160855819Y-93432238D02*
X160808200Y-93527476D01*
X160808200Y-93527476D02*
X160760580Y-93575095D01*
X160760580Y-93575095D02*
X160665342Y-93622714D01*
X160665342Y-93622714D02*
X160474866Y-93622714D01*
X160474866Y-93622714D02*
X160379628Y-93575095D01*
X160379628Y-93575095D02*
X160332009Y-93527476D01*
X160332009Y-93527476D02*
X160284390Y-93432238D01*
X160760580Y-96480333D02*
X160808200Y-96432714D01*
X160808200Y-96432714D02*
X160855819Y-96289857D01*
X160855819Y-96289857D02*
X160855819Y-96194619D01*
X160855819Y-96194619D02*
X160808200Y-96051762D01*
X160808200Y-96051762D02*
X160712961Y-95956524D01*
X160712961Y-95956524D02*
X160617723Y-95908905D01*
X160617723Y-95908905D02*
X160427247Y-95861286D01*
X160427247Y-95861286D02*
X160284390Y-95861286D01*
X160284390Y-95861286D02*
X160093914Y-95908905D01*
X160093914Y-95908905D02*
X159998676Y-95956524D01*
X159998676Y-95956524D02*
X159903438Y-96051762D01*
X159903438Y-96051762D02*
X159855819Y-96194619D01*
X159855819Y-96194619D02*
X159855819Y-96289857D01*
X159855819Y-96289857D02*
X159903438Y-96432714D01*
X159903438Y-96432714D02*
X159951057Y-96480333D01*
X159855819Y-96813667D02*
X159855819Y-97480333D01*
X159855819Y-97480333D02*
X160855819Y-97051762D01*
X154791580Y-100798333D02*
X154839200Y-100750714D01*
X154839200Y-100750714D02*
X154886819Y-100607857D01*
X154886819Y-100607857D02*
X154886819Y-100512619D01*
X154886819Y-100512619D02*
X154839200Y-100369762D01*
X154839200Y-100369762D02*
X154743961Y-100274524D01*
X154743961Y-100274524D02*
X154648723Y-100226905D01*
X154648723Y-100226905D02*
X154458247Y-100179286D01*
X154458247Y-100179286D02*
X154315390Y-100179286D01*
X154315390Y-100179286D02*
X154124914Y-100226905D01*
X154124914Y-100226905D02*
X154029676Y-100274524D01*
X154029676Y-100274524D02*
X153934438Y-100369762D01*
X153934438Y-100369762D02*
X153886819Y-100512619D01*
X153886819Y-100512619D02*
X153886819Y-100607857D01*
X153886819Y-100607857D02*
X153934438Y-100750714D01*
X153934438Y-100750714D02*
X153982057Y-100798333D01*
X153886819Y-101655476D02*
X153886819Y-101465000D01*
X153886819Y-101465000D02*
X153934438Y-101369762D01*
X153934438Y-101369762D02*
X153982057Y-101322143D01*
X153982057Y-101322143D02*
X154124914Y-101226905D01*
X154124914Y-101226905D02*
X154315390Y-101179286D01*
X154315390Y-101179286D02*
X154696342Y-101179286D01*
X154696342Y-101179286D02*
X154791580Y-101226905D01*
X154791580Y-101226905D02*
X154839200Y-101274524D01*
X154839200Y-101274524D02*
X154886819Y-101369762D01*
X154886819Y-101369762D02*
X154886819Y-101560238D01*
X154886819Y-101560238D02*
X154839200Y-101655476D01*
X154839200Y-101655476D02*
X154791580Y-101703095D01*
X154791580Y-101703095D02*
X154696342Y-101750714D01*
X154696342Y-101750714D02*
X154458247Y-101750714D01*
X154458247Y-101750714D02*
X154363009Y-101703095D01*
X154363009Y-101703095D02*
X154315390Y-101655476D01*
X154315390Y-101655476D02*
X154267771Y-101560238D01*
X154267771Y-101560238D02*
X154267771Y-101369762D01*
X154267771Y-101369762D02*
X154315390Y-101274524D01*
X154315390Y-101274524D02*
X154363009Y-101226905D01*
X154363009Y-101226905D02*
X154458247Y-101179286D01*
X149010666Y-68145819D02*
X149343999Y-67669628D01*
X149582094Y-68145819D02*
X149582094Y-67145819D01*
X149582094Y-67145819D02*
X149201142Y-67145819D01*
X149201142Y-67145819D02*
X149105904Y-67193438D01*
X149105904Y-67193438D02*
X149058285Y-67241057D01*
X149058285Y-67241057D02*
X149010666Y-67336295D01*
X149010666Y-67336295D02*
X149010666Y-67479152D01*
X149010666Y-67479152D02*
X149058285Y-67574390D01*
X149058285Y-67574390D02*
X149105904Y-67622009D01*
X149105904Y-67622009D02*
X149201142Y-67669628D01*
X149201142Y-67669628D02*
X149582094Y-67669628D01*
X148058285Y-68145819D02*
X148629713Y-68145819D01*
X148343999Y-68145819D02*
X148343999Y-67145819D01*
X148343999Y-67145819D02*
X148439237Y-67288676D01*
X148439237Y-67288676D02*
X148534475Y-67383914D01*
X148534475Y-67383914D02*
X148629713Y-67431533D01*
X149010666Y-73257580D02*
X149058285Y-73305200D01*
X149058285Y-73305200D02*
X149201142Y-73352819D01*
X149201142Y-73352819D02*
X149296380Y-73352819D01*
X149296380Y-73352819D02*
X149439237Y-73305200D01*
X149439237Y-73305200D02*
X149534475Y-73209961D01*
X149534475Y-73209961D02*
X149582094Y-73114723D01*
X149582094Y-73114723D02*
X149629713Y-72924247D01*
X149629713Y-72924247D02*
X149629713Y-72781390D01*
X149629713Y-72781390D02*
X149582094Y-72590914D01*
X149582094Y-72590914D02*
X149534475Y-72495676D01*
X149534475Y-72495676D02*
X149439237Y-72400438D01*
X149439237Y-72400438D02*
X149296380Y-72352819D01*
X149296380Y-72352819D02*
X149201142Y-72352819D01*
X149201142Y-72352819D02*
X149058285Y-72400438D01*
X149058285Y-72400438D02*
X149010666Y-72448057D01*
X148153523Y-72686152D02*
X148153523Y-73352819D01*
X148391618Y-72305200D02*
X148629713Y-73019485D01*
X148629713Y-73019485D02*
X148010666Y-73019485D01*
X157331580Y-69429333D02*
X157379200Y-69381714D01*
X157379200Y-69381714D02*
X157426819Y-69238857D01*
X157426819Y-69238857D02*
X157426819Y-69143619D01*
X157426819Y-69143619D02*
X157379200Y-69000762D01*
X157379200Y-69000762D02*
X157283961Y-68905524D01*
X157283961Y-68905524D02*
X157188723Y-68857905D01*
X157188723Y-68857905D02*
X156998247Y-68810286D01*
X156998247Y-68810286D02*
X156855390Y-68810286D01*
X156855390Y-68810286D02*
X156664914Y-68857905D01*
X156664914Y-68857905D02*
X156569676Y-68905524D01*
X156569676Y-68905524D02*
X156474438Y-69000762D01*
X156474438Y-69000762D02*
X156426819Y-69143619D01*
X156426819Y-69143619D02*
X156426819Y-69238857D01*
X156426819Y-69238857D02*
X156474438Y-69381714D01*
X156474438Y-69381714D02*
X156522057Y-69429333D01*
X157426819Y-70381714D02*
X157426819Y-69810286D01*
X157426819Y-70096000D02*
X156426819Y-70096000D01*
X156426819Y-70096000D02*
X156569676Y-70000762D01*
X156569676Y-70000762D02*
X156664914Y-69905524D01*
X156664914Y-69905524D02*
X156712533Y-69810286D01*
D11*
%TO.C,J4*%
X161230000Y-67310000D02*
X163890000Y-67310000D01*
X161230000Y-105470000D02*
X161230000Y-67310000D01*
X161230000Y-105470000D02*
X163890000Y-105470000D01*
X162560000Y-64710000D02*
X163890000Y-64710000D01*
X163890000Y-64710000D02*
X163890000Y-66040000D01*
X163890000Y-105470000D02*
X163890000Y-67310000D01*
%TO.C,J3*%
X143450000Y-67310000D02*
X146110000Y-67310000D01*
X143450000Y-105470000D02*
X143450000Y-67310000D01*
X143450000Y-105470000D02*
X146110000Y-105470000D01*
X144780000Y-64710000D02*
X146110000Y-64710000D01*
X146110000Y-64710000D02*
X146110000Y-66040000D01*
X146110000Y-105470000D02*
X146110000Y-67310000D01*
%TO.C,C5*%
X150360748Y-100611000D02*
X150883252Y-100611000D01*
X150360748Y-102081000D02*
X150883252Y-102081000D01*
%TO.C,U1*%
X151883000Y-92800500D02*
X151883000Y-93780500D01*
X151883000Y-92800500D02*
X154463000Y-92800500D01*
X151883000Y-92800500D02*
X154603000Y-92800500D01*
X151883000Y-97520500D02*
X151883000Y-96540500D01*
X154603000Y-97520500D02*
X151883000Y-97520500D01*
X155013000Y-92950500D02*
X154773000Y-92620500D01*
X155253000Y-92620500D01*
X155013000Y-92950500D01*
G36*
X155013000Y-92950500D02*
G01*
X154773000Y-92620500D01*
X155253000Y-92620500D01*
X155013000Y-92950500D01*
G37*
D10*
%TO.C,U2*%
X148773286Y-83590190D02*
X148543476Y-83820000D01*
X148773286Y-84049810D02*
X148543476Y-83820000D01*
X153440190Y-78923286D02*
X153670000Y-78693476D01*
X153440190Y-88716714D02*
X153670000Y-88946524D01*
X153899810Y-78923286D02*
X153670000Y-78693476D01*
X153899810Y-88716714D02*
X153670000Y-88946524D01*
X158566714Y-83590190D02*
X158796524Y-83820000D01*
X158637425Y-83979099D02*
X158796524Y-83820000D01*
D11*
X159708692Y-84470538D02*
X159135935Y-84562462D01*
X159227859Y-83989706D01*
X159708692Y-84470538D01*
G36*
X159708692Y-84470538D02*
G01*
X159135935Y-84562462D01*
X159227859Y-83989706D01*
X159708692Y-84470538D01*
G37*
%TO.C,C2*%
X153444753Y-71655000D02*
X152922247Y-71655000D01*
X153444753Y-73125000D02*
X152922247Y-73125000D01*
%TO.C,C8*%
X158142000Y-92575748D02*
X158142000Y-93098252D01*
X159612000Y-92575748D02*
X159612000Y-93098252D01*
%TO.C,C7*%
X158142000Y-96908252D02*
X158142000Y-96385748D01*
X159612000Y-96908252D02*
X159612000Y-96385748D01*
%TO.C,C6*%
X156603248Y-99478000D02*
X158025752Y-99478000D01*
X156603248Y-102198000D02*
X158025752Y-102198000D01*
%TO.C,R1*%
X149071064Y-68353000D02*
X148616936Y-68353000D01*
X149071064Y-69823000D02*
X148616936Y-69823000D01*
%TO.C,C4*%
X149105252Y-70639000D02*
X148582748Y-70639000D01*
X149105252Y-72109000D02*
X148582748Y-72109000D01*
%TO.C,C1*%
X154381252Y-68236000D02*
X152958748Y-68236000D01*
X154381252Y-70956000D02*
X152958748Y-70956000D01*
%TD*%
M02*
