%TF.GenerationSoftware,KiCad,Pcbnew,8.0.3*%
%TF.CreationDate,2024-08-14T21:13:37+02:00*%
%TF.ProjectId,AVR128 Breakout,41565231-3238-4204-9272-65616b6f7574,rev?*%
%TF.SameCoordinates,Original*%
%TF.FileFunction,Copper,L1,Top*%
%TF.FilePolarity,Positive*%
%FSLAX46Y46*%
G04 Gerber Fmt 4.6, Leading zero omitted, Abs format (unit mm)*
G04 Created by KiCad (PCBNEW 8.0.3) date 2024-08-14 21:13:37*
%MOMM*%
%LPD*%
G01*
G04 APERTURE LIST*
G04 Aperture macros list*
%AMRoundRect*
0 Rectangle with rounded corners*
0 $1 Rounding radius*
0 $2 $3 $4 $5 $6 $7 $8 $9 X,Y pos of 4 corners*
0 Add a 4 corners polygon primitive as box body*
4,1,4,$2,$3,$4,$5,$6,$7,$8,$9,$2,$3,0*
0 Add four circle primitives for the rounded corners*
1,1,$1+$1,$2,$3*
1,1,$1+$1,$4,$5*
1,1,$1+$1,$6,$7*
1,1,$1+$1,$8,$9*
0 Add four rect primitives between the rounded corners*
20,1,$1+$1,$2,$3,$4,$5,0*
20,1,$1+$1,$4,$5,$6,$7,0*
20,1,$1+$1,$6,$7,$8,$9,0*
20,1,$1+$1,$8,$9,$2,$3,0*%
G04 Aperture macros list end*
%TA.AperFunction,SMDPad,CuDef*%
%ADD10R,1.050000X0.650000*%
%TD*%
%TA.AperFunction,SMDPad,CuDef*%
%ADD11RoundRect,0.250000X-0.450000X0.325000X-0.450000X-0.325000X0.450000X-0.325000X0.450000X0.325000X0*%
%TD*%
%TA.AperFunction,SMDPad,CuDef*%
%ADD12R,1.000000X1.500000*%
%TD*%
%TA.AperFunction,ComponentPad*%
%ADD13R,1.700000X1.700000*%
%TD*%
%TA.AperFunction,ComponentPad*%
%ADD14O,1.700000X1.700000*%
%TD*%
%TA.AperFunction,SMDPad,CuDef*%
%ADD15RoundRect,0.250000X0.337500X0.475000X-0.337500X0.475000X-0.337500X-0.475000X0.337500X-0.475000X0*%
%TD*%
%TA.AperFunction,SMDPad,CuDef*%
%ADD16RoundRect,0.250000X0.450000X-0.350000X0.450000X0.350000X-0.450000X0.350000X-0.450000X-0.350000X0*%
%TD*%
%TA.AperFunction,SMDPad,CuDef*%
%ADD17RoundRect,0.150000X0.150000X-0.512500X0.150000X0.512500X-0.150000X0.512500X-0.150000X-0.512500X0*%
%TD*%
%TA.AperFunction,ViaPad*%
%ADD18C,0.700000*%
%TD*%
%TA.AperFunction,Conductor*%
%ADD19C,0.300000*%
%TD*%
%TA.AperFunction,Conductor*%
%ADD20C,0.350000*%
%TD*%
G04 APERTURE END LIST*
D10*
%TO.P,SW1,1,1*%
%TO.N,GND*%
X155727000Y-77021000D03*
X151577000Y-77021000D03*
%TO.P,SW1,2,2*%
%TO.N,Net-(R1-Pad2)*%
X155727000Y-74871000D03*
X151602000Y-74871000D03*
%TD*%
D11*
%TO.P,D1,1,K*%
%TO.N,GND*%
X155448000Y-84065000D03*
%TO.P,D1,2,A*%
%TO.N,Net-(D1-A)*%
X155448000Y-86115000D03*
%TD*%
D12*
%TO.P,JP1,1,A*%
%TO.N,3V3*%
X152370000Y-89408000D03*
%TO.P,JP1,2,C*%
%TO.N,VDD*%
X153670000Y-89408000D03*
%TO.P,JP1,3,B*%
%TO.N,5V*%
X154970000Y-89408000D03*
%TD*%
D13*
%TO.P,J1,1,Pin_1*%
%TO.N,3V3*%
X156210000Y-104140000D03*
D14*
%TO.P,J1,2,Pin_2*%
%TO.N,VDDIO2*%
X153670000Y-104140000D03*
%TO.P,J1,3,Pin_3*%
%TO.N,5V*%
X151130000Y-104140000D03*
%TD*%
D13*
%TO.P,J2,1,Pin_1*%
%TO.N,PF6{slash}RST*%
X149860000Y-66040000D03*
D14*
%TO.P,J2,2,Pin_2*%
%TO.N,VDD*%
X152400000Y-66040000D03*
%TO.P,J2,3,Pin_3*%
%TO.N,GND*%
X154940000Y-66040000D03*
%TO.P,J2,4,Pin_4*%
%TO.N,/UPDI*%
X157480000Y-66040000D03*
%TD*%
D15*
%TO.P,C3,1*%
%TO.N,VDD*%
X154707500Y-80772000D03*
%TO.P,C3,2*%
%TO.N,GND*%
X152632500Y-80772000D03*
%TD*%
D16*
%TO.P,R2,1*%
%TO.N,Net-(D1-A)*%
X151892000Y-86090000D03*
%TO.P,R2,2*%
%TO.N,VDD*%
X151892000Y-84090000D03*
%TD*%
D17*
%TO.P,U3,1,VIN*%
%TO.N,5V*%
X152720000Y-96133500D03*
%TO.P,U3,2,GND*%
%TO.N,GND*%
X153670000Y-96133500D03*
%TO.P,U3,3,EN*%
%TO.N,5V*%
X154620000Y-96133500D03*
%TO.P,U3,4,NC*%
%TO.N,unconnected-(U3-NC-Pad4)*%
X154620000Y-93858500D03*
%TO.P,U3,5,VOUT*%
%TO.N,3V3*%
X152720000Y-93858500D03*
%TD*%
D13*
%TO.P,J4,1,Pin_1*%
%TO.N,PA0*%
X162560000Y-66040000D03*
D14*
%TO.P,J4,2,Pin_2*%
%TO.N,PA1*%
X162560000Y-68580000D03*
%TO.P,J4,3,Pin_3*%
%TO.N,PA2*%
X162560000Y-71120000D03*
%TO.P,J4,4,Pin_4*%
%TO.N,PA3*%
X162560000Y-73660000D03*
%TO.P,J4,5,Pin_5*%
%TO.N,PA4*%
X162560000Y-76200000D03*
%TO.P,J4,6,Pin_6*%
%TO.N,PA5*%
X162560000Y-78740000D03*
%TO.P,J4,7,Pin_7*%
%TO.N,PA6*%
X162560000Y-81280000D03*
%TO.P,J4,8,Pin_8*%
%TO.N,PA7*%
X162560000Y-83820000D03*
%TO.P,J4,9,Pin_9*%
%TO.N,GND*%
X162560000Y-86360000D03*
%TO.P,J4,10,Pin_10*%
%TO.N,3V3*%
X162560000Y-88900000D03*
%TO.P,J4,11,Pin_11*%
%TO.N,PC0*%
X162560000Y-91440000D03*
%TO.P,J4,12,Pin_12*%
%TO.N,PC1*%
X162560000Y-93980000D03*
%TO.P,J4,13,Pin_13*%
%TO.N,PC2*%
X162560000Y-96520000D03*
%TO.P,J4,14,Pin_14*%
%TO.N,PC3*%
X162560000Y-99060000D03*
%TO.P,J4,15,Pin_15*%
%TO.N,5V*%
X162560000Y-101600000D03*
%TO.P,J4,16,Pin_16*%
%TO.N,VIN*%
X162560000Y-104140000D03*
%TD*%
D13*
%TO.P,J3,1,Pin_1*%
%TO.N,VDD*%
X144780000Y-66040000D03*
D14*
%TO.P,J3,2,Pin_2*%
%TO.N,PF6{slash}RST*%
X144780000Y-68580000D03*
%TO.P,J3,3,Pin_3*%
%TO.N,PF5*%
X144780000Y-71120000D03*
%TO.P,J3,4,Pin_4*%
%TO.N,PF4*%
X144780000Y-73660000D03*
%TO.P,J3,5,Pin_5*%
%TO.N,PF3*%
X144780000Y-76200000D03*
%TO.P,J3,6,Pin_6*%
%TO.N,PF2*%
X144780000Y-78740000D03*
%TO.P,J3,7,Pin_7*%
%TO.N,PF1*%
X144780000Y-81280000D03*
%TO.P,J3,8,Pin_8*%
%TO.N,PF0*%
X144780000Y-83820000D03*
%TO.P,J3,9,Pin_9*%
%TO.N,GND*%
X144780000Y-86360000D03*
%TO.P,J3,10,Pin_10*%
%TO.N,PD7{slash}REFA*%
X144780000Y-88900000D03*
%TO.P,J3,11,Pin_11*%
%TO.N,PD6*%
X144780000Y-91440000D03*
%TO.P,J3,12,Pin_12*%
%TO.N,PD5*%
X144780000Y-93980000D03*
%TO.P,J3,13,Pin_13*%
%TO.N,PD4*%
X144780000Y-96520000D03*
%TO.P,J3,14,Pin_14*%
%TO.N,PD3*%
X144780000Y-99060000D03*
%TO.P,J3,15,Pin_15*%
%TO.N,PD2*%
X144780000Y-101600000D03*
%TO.P,J3,16,Pin_16*%
%TO.N,PD1*%
X144780000Y-104140000D03*
%TD*%
D18*
%TO.N,GND*%
X153162000Y-71374000D03*
X159766000Y-102870000D03*
X153924000Y-84328000D03*
X151130000Y-71374000D03*
X156591000Y-90932000D03*
X148844000Y-104140000D03*
X153924000Y-98298000D03*
X158877000Y-95609500D03*
X155448000Y-83811000D03*
X151892000Y-76073000D03*
X153416000Y-82296000D03*
X148844000Y-99060000D03*
%TO.N,VDD*%
X154432000Y-82550000D03*
%TO.N,PA6*%
X160368907Y-86454907D03*
%TO.N,PA7*%
X160147000Y-87652501D03*
%TO.N,Net-(R1-Pad2)*%
X151602000Y-74871000D03*
%TO.N,3V3*%
X158877000Y-91948000D03*
%TO.N,5V*%
X154940000Y-91186000D03*
X151892000Y-95250000D03*
%TD*%
D19*
%TO.N,VDD*%
X153450000Y-88138000D02*
X153670000Y-88358000D01*
X151892000Y-84090000D02*
X150842000Y-85140000D01*
X150842000Y-85140000D02*
X150842000Y-86695456D01*
X152892000Y-84090000D02*
X154432000Y-82550000D01*
X154403157Y-82521157D02*
X154432000Y-82550000D01*
X151892000Y-84090000D02*
X152892000Y-84090000D01*
X154707500Y-82216814D02*
X154403157Y-82521157D01*
X153670000Y-88358000D02*
X153670000Y-89408000D01*
X154707500Y-80772000D02*
X154707500Y-82216814D01*
X150842000Y-86695456D02*
X152284544Y-88138000D01*
X152284544Y-88138000D02*
X153450000Y-88138000D01*
%TO.N,PA6*%
X160368907Y-86454907D02*
X160368907Y-86384195D01*
X160587551Y-86165551D02*
X160587551Y-83252449D01*
X160587551Y-83252449D02*
X162560000Y-81280000D01*
X160368907Y-86384195D02*
X160587551Y-86165551D01*
%TO.N,PA7*%
X160378499Y-87652501D02*
X161360000Y-86671000D01*
X160147000Y-87652501D02*
X160378499Y-87652501D01*
X161360000Y-85020000D02*
X162560000Y-83820000D01*
X161360000Y-86671000D02*
X161360000Y-85020000D01*
%TO.N,Net-(R1-Pad2)*%
X151602000Y-74871000D02*
X155727000Y-74871000D01*
%TO.N,Net-(D1-A)*%
X155423000Y-86090000D02*
X155448000Y-86115000D01*
X151892000Y-86090000D02*
X155423000Y-86090000D01*
D20*
%TO.N,3V3*%
X152370000Y-93000500D02*
X152720000Y-93350500D01*
X152370000Y-91186000D02*
X153132000Y-91948000D01*
X159512000Y-91948000D02*
X162560000Y-88900000D01*
X156210000Y-91948000D02*
X158877000Y-91948000D01*
X158877000Y-91948000D02*
X159512000Y-91948000D01*
X152370000Y-89408000D02*
X152370000Y-91186000D01*
X153132000Y-91948000D02*
X156210000Y-91948000D01*
X156210000Y-104140000D02*
X156210000Y-91948000D01*
X152370000Y-89408000D02*
X152370000Y-93000500D01*
%TO.N,5V*%
X154620000Y-96133500D02*
X154620000Y-95471001D01*
X151130000Y-102928000D02*
X151638000Y-102420000D01*
X154970000Y-91156000D02*
X154940000Y-91186000D01*
X152720000Y-95471001D02*
X152720000Y-96133500D01*
X154244999Y-95096000D02*
X153095001Y-95096000D01*
X151638000Y-97215500D02*
X152720000Y-96133500D01*
X151638000Y-102420000D02*
X151638000Y-97215500D01*
X151130000Y-104140000D02*
X151130000Y-102928000D01*
X152720000Y-96133500D02*
X152720000Y-96078000D01*
X153095001Y-95096000D02*
X152720000Y-95471001D01*
X154620000Y-95471001D02*
X154244999Y-95096000D01*
X152720000Y-96078000D02*
X151892000Y-95250000D01*
X154970000Y-89408000D02*
X154970000Y-91156000D01*
%TD*%
%TA.AperFunction,Conductor*%
%TO.N,GND*%
G36*
X154842487Y-64690245D02*
G01*
X154851569Y-64689500D01*
X155028431Y-64689500D01*
X155030133Y-64689999D01*
X155040051Y-64689500D01*
X163659500Y-64689500D01*
X163726539Y-64709185D01*
X163772294Y-64761989D01*
X163783500Y-64813500D01*
X163783500Y-64906302D01*
X163763815Y-64973341D01*
X163711011Y-65019096D01*
X163641853Y-65029040D01*
X163590610Y-65009405D01*
X163507739Y-64954033D01*
X163507735Y-64954032D01*
X163434677Y-64939500D01*
X163434674Y-64939500D01*
X161685326Y-64939500D01*
X161685323Y-64939500D01*
X161612264Y-64954032D01*
X161612260Y-64954033D01*
X161529399Y-65009399D01*
X161474033Y-65092260D01*
X161474032Y-65092264D01*
X161459500Y-65165321D01*
X161459500Y-66914678D01*
X161474032Y-66987735D01*
X161474033Y-66987739D01*
X161474034Y-66987740D01*
X161529399Y-67070601D01*
X161603602Y-67120181D01*
X161612260Y-67125966D01*
X161612264Y-67125967D01*
X161685321Y-67140499D01*
X161685324Y-67140500D01*
X161685326Y-67140500D01*
X163434676Y-67140500D01*
X163434677Y-67140499D01*
X163507740Y-67125966D01*
X163590601Y-67070601D01*
X163590600Y-67070601D01*
X163590610Y-67070595D01*
X163657287Y-67049717D01*
X163724667Y-67068202D01*
X163771357Y-67120181D01*
X163783500Y-67173697D01*
X163783500Y-68040964D01*
X163763815Y-68108003D01*
X163711011Y-68153758D01*
X163641853Y-68163702D01*
X163578297Y-68134677D01*
X163548500Y-68096236D01*
X163519826Y-68038653D01*
X163499673Y-67998179D01*
X163376764Y-67835421D01*
X163376762Y-67835418D01*
X163226041Y-67698019D01*
X163226039Y-67698017D01*
X163052642Y-67590655D01*
X163052635Y-67590651D01*
X162957546Y-67553814D01*
X162862456Y-67516976D01*
X162661976Y-67479500D01*
X162458024Y-67479500D01*
X162257544Y-67516976D01*
X162257541Y-67516976D01*
X162257541Y-67516977D01*
X162067364Y-67590651D01*
X162067357Y-67590655D01*
X161893960Y-67698017D01*
X161893958Y-67698019D01*
X161743237Y-67835418D01*
X161620327Y-67998178D01*
X161529422Y-68180739D01*
X161529417Y-68180752D01*
X161473602Y-68376917D01*
X161454785Y-68579999D01*
X161454785Y-68580000D01*
X161473602Y-68783082D01*
X161529417Y-68979247D01*
X161529422Y-68979260D01*
X161620327Y-69161821D01*
X161743237Y-69324581D01*
X161893958Y-69461980D01*
X161893960Y-69461982D01*
X161993141Y-69523392D01*
X162067363Y-69569348D01*
X162257544Y-69643024D01*
X162458024Y-69680500D01*
X162458026Y-69680500D01*
X162661974Y-69680500D01*
X162661976Y-69680500D01*
X162862456Y-69643024D01*
X163052637Y-69569348D01*
X163226041Y-69461981D01*
X163376764Y-69324579D01*
X163499673Y-69161821D01*
X163548500Y-69063763D01*
X163596003Y-69012526D01*
X163663666Y-68995105D01*
X163730006Y-69017031D01*
X163773961Y-69071342D01*
X163783500Y-69119035D01*
X163783500Y-70580964D01*
X163763815Y-70648003D01*
X163711011Y-70693758D01*
X163641853Y-70703702D01*
X163578297Y-70674677D01*
X163548500Y-70636236D01*
X163519826Y-70578653D01*
X163499673Y-70538179D01*
X163376764Y-70375421D01*
X163376762Y-70375418D01*
X163226041Y-70238019D01*
X163226039Y-70238017D01*
X163052642Y-70130655D01*
X163052635Y-70130651D01*
X162957546Y-70093814D01*
X162862456Y-70056976D01*
X162661976Y-70019500D01*
X162458024Y-70019500D01*
X162257544Y-70056976D01*
X162257541Y-70056976D01*
X162257541Y-70056977D01*
X162067364Y-70130651D01*
X162067357Y-70130655D01*
X161893960Y-70238017D01*
X161893958Y-70238019D01*
X161743237Y-70375418D01*
X161620327Y-70538178D01*
X161529422Y-70720739D01*
X161529417Y-70720752D01*
X161473602Y-70916917D01*
X161454785Y-71119999D01*
X161454785Y-71120000D01*
X161473602Y-71323082D01*
X161529417Y-71519247D01*
X161529422Y-71519260D01*
X161620327Y-71701821D01*
X161743237Y-71864581D01*
X161893958Y-72001980D01*
X161893960Y-72001982D01*
X161993141Y-72063392D01*
X162067363Y-72109348D01*
X162257544Y-72183024D01*
X162458024Y-72220500D01*
X162458026Y-72220500D01*
X162661974Y-72220500D01*
X162661976Y-72220500D01*
X162862456Y-72183024D01*
X163052637Y-72109348D01*
X163226041Y-72001981D01*
X163376764Y-71864579D01*
X163499673Y-71701821D01*
X163548500Y-71603763D01*
X163596003Y-71552526D01*
X163663666Y-71535105D01*
X163730006Y-71557031D01*
X163773961Y-71611342D01*
X163783500Y-71659035D01*
X163783500Y-73120964D01*
X163763815Y-73188003D01*
X163711011Y-73233758D01*
X163641853Y-73243702D01*
X163578297Y-73214677D01*
X163548500Y-73176236D01*
X163519826Y-73118653D01*
X163499673Y-73078179D01*
X163376764Y-72915421D01*
X163376762Y-72915418D01*
X163226041Y-72778019D01*
X163226039Y-72778017D01*
X163052642Y-72670655D01*
X163052635Y-72670651D01*
X162957546Y-72633814D01*
X162862456Y-72596976D01*
X162661976Y-72559500D01*
X162458024Y-72559500D01*
X162257544Y-72596976D01*
X162257541Y-72596976D01*
X162257541Y-72596977D01*
X162067364Y-72670651D01*
X162067357Y-72670655D01*
X161893960Y-72778017D01*
X161893958Y-72778019D01*
X161743237Y-72915418D01*
X161620327Y-73078178D01*
X161529422Y-73260739D01*
X161529417Y-73260752D01*
X161473602Y-73456917D01*
X161454785Y-73659999D01*
X161454785Y-73660000D01*
X161473602Y-73863082D01*
X161529417Y-74059247D01*
X161529422Y-74059260D01*
X161620327Y-74241821D01*
X161743237Y-74404581D01*
X161893958Y-74541980D01*
X161893960Y-74541982D01*
X161993141Y-74603392D01*
X162067363Y-74649348D01*
X162257544Y-74723024D01*
X162458024Y-74760500D01*
X162458026Y-74760500D01*
X162661974Y-74760500D01*
X162661976Y-74760500D01*
X162862456Y-74723024D01*
X163052637Y-74649348D01*
X163226041Y-74541981D01*
X163376764Y-74404579D01*
X163499673Y-74241821D01*
X163548500Y-74143763D01*
X163596003Y-74092526D01*
X163663666Y-74075105D01*
X163730006Y-74097031D01*
X163773961Y-74151342D01*
X163783500Y-74199035D01*
X163783500Y-75660964D01*
X163763815Y-75728003D01*
X163711011Y-75773758D01*
X163641853Y-75783702D01*
X163578297Y-75754677D01*
X163548500Y-75716236D01*
X163519826Y-75658653D01*
X163499673Y-75618179D01*
X163392820Y-75476682D01*
X163376762Y-75455418D01*
X163226041Y-75318019D01*
X163226039Y-75318017D01*
X163052642Y-75210655D01*
X163052635Y-75210651D01*
X162957546Y-75173814D01*
X162862456Y-75136976D01*
X162661976Y-75099500D01*
X162458024Y-75099500D01*
X162257544Y-75136976D01*
X162257541Y-75136976D01*
X162257541Y-75136977D01*
X162067364Y-75210651D01*
X162067357Y-75210655D01*
X161893960Y-75318017D01*
X161893958Y-75318019D01*
X161743237Y-75455418D01*
X161620327Y-75618178D01*
X161529422Y-75800739D01*
X161529417Y-75800752D01*
X161473602Y-75996917D01*
X161454785Y-76199999D01*
X161454785Y-76200000D01*
X161473602Y-76403082D01*
X161529417Y-76599247D01*
X161529422Y-76599260D01*
X161620327Y-76781821D01*
X161743237Y-76944581D01*
X161893958Y-77081980D01*
X161893960Y-77081982D01*
X161993141Y-77143392D01*
X162067363Y-77189348D01*
X162257544Y-77263024D01*
X162458024Y-77300500D01*
X162458026Y-77300500D01*
X162661974Y-77300500D01*
X162661976Y-77300500D01*
X162862456Y-77263024D01*
X163052637Y-77189348D01*
X163226041Y-77081981D01*
X163376764Y-76944579D01*
X163499673Y-76781821D01*
X163548500Y-76683763D01*
X163596003Y-76632526D01*
X163663666Y-76615105D01*
X163730006Y-76637031D01*
X163773961Y-76691342D01*
X163783500Y-76739035D01*
X163783500Y-78200964D01*
X163763815Y-78268003D01*
X163711011Y-78313758D01*
X163641853Y-78323702D01*
X163578297Y-78294677D01*
X163548500Y-78256236D01*
X163519826Y-78198653D01*
X163499673Y-78158179D01*
X163376764Y-77995421D01*
X163376762Y-77995418D01*
X163226041Y-77858019D01*
X163226039Y-77858017D01*
X163052642Y-77750655D01*
X163052635Y-77750651D01*
X162957546Y-77713814D01*
X162862456Y-77676976D01*
X162661976Y-77639500D01*
X162458024Y-77639500D01*
X162257544Y-77676976D01*
X162257541Y-77676976D01*
X162257541Y-77676977D01*
X162067364Y-77750651D01*
X162067357Y-77750655D01*
X161893960Y-77858017D01*
X161893958Y-77858019D01*
X161743237Y-77995418D01*
X161620327Y-78158178D01*
X161529422Y-78340739D01*
X161529417Y-78340752D01*
X161473602Y-78536917D01*
X161454785Y-78739999D01*
X161454785Y-78740000D01*
X161473602Y-78943082D01*
X161529417Y-79139247D01*
X161529422Y-79139260D01*
X161620327Y-79321821D01*
X161743237Y-79484581D01*
X161893958Y-79621980D01*
X161893960Y-79621982D01*
X161993141Y-79683392D01*
X162067363Y-79729348D01*
X162257544Y-79803024D01*
X162458024Y-79840500D01*
X162458026Y-79840500D01*
X162661974Y-79840500D01*
X162661976Y-79840500D01*
X162862456Y-79803024D01*
X163052637Y-79729348D01*
X163226041Y-79621981D01*
X163376764Y-79484579D01*
X163499673Y-79321821D01*
X163548500Y-79223763D01*
X163596003Y-79172526D01*
X163663666Y-79155105D01*
X163730006Y-79177031D01*
X163773961Y-79231342D01*
X163783500Y-79279035D01*
X163783500Y-80740964D01*
X163763815Y-80808003D01*
X163711011Y-80853758D01*
X163641853Y-80863702D01*
X163578297Y-80834677D01*
X163548500Y-80796236D01*
X163519826Y-80738653D01*
X163499673Y-80698179D01*
X163376764Y-80535421D01*
X163376762Y-80535418D01*
X163226041Y-80398019D01*
X163226039Y-80398017D01*
X163052642Y-80290655D01*
X163052635Y-80290651D01*
X162945520Y-80249155D01*
X162862456Y-80216976D01*
X162661976Y-80179500D01*
X162458024Y-80179500D01*
X162257544Y-80216976D01*
X162257541Y-80216976D01*
X162257541Y-80216977D01*
X162067364Y-80290651D01*
X162067357Y-80290655D01*
X161893960Y-80398017D01*
X161893958Y-80398019D01*
X161743237Y-80535418D01*
X161620327Y-80698178D01*
X161529422Y-80880739D01*
X161529417Y-80880752D01*
X161473602Y-81076917D01*
X161454785Y-81279999D01*
X161454785Y-81280000D01*
X161473602Y-81483082D01*
X161473603Y-81483085D01*
X161523859Y-81659716D01*
X161523272Y-81729583D01*
X161492274Y-81781331D01*
X160267073Y-83006533D01*
X160267071Y-83006536D01*
X160227302Y-83075418D01*
X160214344Y-83097861D01*
X160198851Y-83155682D01*
X160198851Y-83155683D01*
X160198850Y-83155682D01*
X160187051Y-83199718D01*
X160187051Y-85797402D01*
X160167366Y-85864441D01*
X160114562Y-85910196D01*
X160110505Y-85911962D01*
X160066072Y-85930367D01*
X160066069Y-85930369D01*
X160066066Y-85930370D01*
X160066066Y-85930371D01*
X160047229Y-85944825D01*
X159940626Y-86026623D01*
X159844370Y-86152067D01*
X159783863Y-86298144D01*
X159783862Y-86298146D01*
X159763225Y-86454905D01*
X159763225Y-86454908D01*
X159783862Y-86611667D01*
X159783863Y-86611669D01*
X159840408Y-86748182D01*
X159844371Y-86757748D01*
X159940625Y-86883189D01*
X159943583Y-86885459D01*
X159945446Y-86888010D01*
X159946372Y-86888936D01*
X159946227Y-86889080D01*
X159984784Y-86941885D01*
X159988939Y-87011632D01*
X159954726Y-87072552D01*
X159915549Y-87098394D01*
X159844159Y-87127965D01*
X159718718Y-87224219D01*
X159622463Y-87349661D01*
X159561956Y-87495738D01*
X159561955Y-87495740D01*
X159541318Y-87652499D01*
X159541318Y-87652502D01*
X159561955Y-87809261D01*
X159561956Y-87809263D01*
X159601614Y-87905007D01*
X159622464Y-87955342D01*
X159718718Y-88080783D01*
X159844159Y-88177037D01*
X159990238Y-88237545D01*
X160068619Y-88247864D01*
X160146999Y-88258183D01*
X160147000Y-88258183D01*
X160147001Y-88258183D01*
X160199254Y-88251303D01*
X160303762Y-88237545D01*
X160449841Y-88177037D01*
X160575282Y-88080783D01*
X160671536Y-87955342D01*
X160682946Y-87927793D01*
X160709823Y-87887568D01*
X161535090Y-87062302D01*
X161596409Y-87028820D01*
X161666101Y-87033804D01*
X161721720Y-87075258D01*
X161743607Y-87104240D01*
X161743607Y-87104241D01*
X161894260Y-87241578D01*
X162067584Y-87348897D01*
X162257678Y-87422539D01*
X162435000Y-87455686D01*
X162435000Y-86844144D01*
X162494174Y-86860000D01*
X162625826Y-86860000D01*
X162685000Y-86844144D01*
X162685000Y-87455686D01*
X162862321Y-87422539D01*
X163052415Y-87348897D01*
X163225739Y-87241578D01*
X163376391Y-87104242D01*
X163499246Y-86941554D01*
X163548500Y-86842641D01*
X163596003Y-86791403D01*
X163663665Y-86773982D01*
X163730006Y-86795907D01*
X163773961Y-86850219D01*
X163783500Y-86897912D01*
X163783500Y-88360964D01*
X163763815Y-88428003D01*
X163711011Y-88473758D01*
X163641853Y-88483702D01*
X163578297Y-88454677D01*
X163548500Y-88416236D01*
X163508054Y-88335011D01*
X163499673Y-88318179D01*
X163376764Y-88155421D01*
X163376762Y-88155418D01*
X163226041Y-88018019D01*
X163226039Y-88018017D01*
X163052642Y-87910655D01*
X163052635Y-87910651D01*
X162957546Y-87873814D01*
X162862456Y-87836976D01*
X162661976Y-87799500D01*
X162458024Y-87799500D01*
X162257544Y-87836976D01*
X162257541Y-87836976D01*
X162257541Y-87836977D01*
X162067364Y-87910651D01*
X162067357Y-87910655D01*
X161893960Y-88018017D01*
X161893958Y-88018019D01*
X161743237Y-88155418D01*
X161620327Y-88318178D01*
X161529422Y-88500739D01*
X161529417Y-88500752D01*
X161473602Y-88696917D01*
X161454785Y-88899999D01*
X161454785Y-88900000D01*
X161473602Y-89103082D01*
X161473603Y-89103084D01*
X161516028Y-89252192D01*
X161515441Y-89322059D01*
X161484443Y-89373807D01*
X159400991Y-91457260D01*
X159339668Y-91490745D01*
X159269976Y-91485761D01*
X159237824Y-91467955D01*
X159179842Y-91423464D01*
X159033762Y-91362956D01*
X159033760Y-91362955D01*
X158877001Y-91342318D01*
X158876999Y-91342318D01*
X158720239Y-91362955D01*
X158720237Y-91362956D01*
X158574157Y-91423464D01*
X158478485Y-91496876D01*
X158413315Y-91522070D01*
X158402999Y-91522500D01*
X155636173Y-91522500D01*
X155569134Y-91502815D01*
X155523379Y-91450011D01*
X155513435Y-91380853D01*
X155521612Y-91351048D01*
X155522267Y-91349463D01*
X155525044Y-91342762D01*
X155545682Y-91186000D01*
X155525044Y-91029238D01*
X155464536Y-90883159D01*
X155464535Y-90883158D01*
X155464535Y-90883157D01*
X155421124Y-90826582D01*
X155395930Y-90761412D01*
X155395500Y-90751096D01*
X155395500Y-90529991D01*
X155415185Y-90462952D01*
X155467989Y-90417197D01*
X155495309Y-90408374D01*
X155567735Y-90393967D01*
X155567735Y-90393966D01*
X155567740Y-90393966D01*
X155650601Y-90338601D01*
X155705966Y-90255740D01*
X155720500Y-90182674D01*
X155720500Y-88633326D01*
X155720500Y-88633323D01*
X155720499Y-88633321D01*
X155705967Y-88560264D01*
X155705966Y-88560260D01*
X155650601Y-88477399D01*
X155581898Y-88431494D01*
X155567739Y-88422033D01*
X155567735Y-88422032D01*
X155494677Y-88407500D01*
X155494674Y-88407500D01*
X154445326Y-88407500D01*
X154445324Y-88407500D01*
X154372259Y-88422033D01*
X154367452Y-88424025D01*
X154297983Y-88431494D01*
X154272548Y-88424025D01*
X154267740Y-88422033D01*
X154194676Y-88407500D01*
X154194674Y-88407500D01*
X154192704Y-88407500D01*
X154191708Y-88407207D01*
X154188614Y-88406903D01*
X154188671Y-88406316D01*
X154125665Y-88387815D01*
X154079910Y-88335011D01*
X154073552Y-88312873D01*
X154072605Y-88313127D01*
X154067102Y-88292591D01*
X154067101Y-88292588D01*
X154067101Y-88292587D01*
X154043207Y-88203412D01*
X153990480Y-88112087D01*
X153695913Y-87817520D01*
X153650250Y-87791156D01*
X153604589Y-87764793D01*
X153553657Y-87751146D01*
X153502727Y-87737500D01*
X153502726Y-87737500D01*
X152501799Y-87737500D01*
X152434760Y-87717815D01*
X152414118Y-87701181D01*
X151865117Y-87152180D01*
X151831632Y-87090857D01*
X151836616Y-87021165D01*
X151878488Y-86965232D01*
X151943952Y-86940815D01*
X151952798Y-86940499D01*
X152389871Y-86940499D01*
X152389872Y-86940499D01*
X152449483Y-86934091D01*
X152584331Y-86883796D01*
X152699546Y-86797546D01*
X152785796Y-86682331D01*
X152809688Y-86618273D01*
X152827258Y-86571167D01*
X152869129Y-86515233D01*
X152934593Y-86490816D01*
X152943440Y-86490500D01*
X154396560Y-86490500D01*
X154463599Y-86510185D01*
X154509354Y-86562989D01*
X154512742Y-86571167D01*
X154554202Y-86682328D01*
X154554206Y-86682335D01*
X154640452Y-86797544D01*
X154640455Y-86797547D01*
X154755664Y-86883793D01*
X154755671Y-86883797D01*
X154890517Y-86934091D01*
X154890516Y-86934091D01*
X154897444Y-86934835D01*
X154950127Y-86940500D01*
X155945872Y-86940499D01*
X156005483Y-86934091D01*
X156140331Y-86883796D01*
X156255546Y-86797546D01*
X156341796Y-86682331D01*
X156392091Y-86547483D01*
X156398500Y-86487873D01*
X156398499Y-85742128D01*
X156392091Y-85682517D01*
X156387353Y-85669815D01*
X156341797Y-85547671D01*
X156341793Y-85547664D01*
X156255547Y-85432455D01*
X156255544Y-85432452D01*
X156140335Y-85346206D01*
X156140328Y-85346202D01*
X156005482Y-85295908D01*
X156005483Y-85295908D01*
X155945883Y-85289501D01*
X155945881Y-85289500D01*
X155945873Y-85289500D01*
X155945864Y-85289500D01*
X154950129Y-85289500D01*
X154950123Y-85289501D01*
X154890516Y-85295908D01*
X154755671Y-85346202D01*
X154755664Y-85346206D01*
X154640455Y-85432452D01*
X154640452Y-85432455D01*
X154554206Y-85547664D01*
X154554202Y-85547671D01*
X154531391Y-85608833D01*
X154489520Y-85664767D01*
X154424056Y-85689184D01*
X154415209Y-85689500D01*
X152943440Y-85689500D01*
X152876401Y-85669815D01*
X152830646Y-85617011D01*
X152827258Y-85608833D01*
X152785797Y-85497671D01*
X152785793Y-85497664D01*
X152699547Y-85382455D01*
X152699544Y-85382452D01*
X152584335Y-85296206D01*
X152584328Y-85296202D01*
X152449482Y-85245908D01*
X152449483Y-85245908D01*
X152389883Y-85239501D01*
X152389881Y-85239500D01*
X152389873Y-85239500D01*
X152389865Y-85239500D01*
X151608253Y-85239500D01*
X151541214Y-85219815D01*
X151495459Y-85167011D01*
X151485515Y-85097853D01*
X151514540Y-85034297D01*
X151520559Y-85027832D01*
X151571575Y-84976817D01*
X151632898Y-84943333D01*
X151659255Y-84940499D01*
X152389871Y-84940499D01*
X152389872Y-84940499D01*
X152449483Y-84934091D01*
X152584331Y-84883796D01*
X152699546Y-84797546D01*
X152785796Y-84682331D01*
X152811329Y-84613874D01*
X152827258Y-84571167D01*
X152869129Y-84515233D01*
X152934593Y-84490816D01*
X152943440Y-84490500D01*
X152944725Y-84490500D01*
X152944727Y-84490500D01*
X153046588Y-84463207D01*
X153090518Y-84437844D01*
X154498000Y-84437844D01*
X154504401Y-84497372D01*
X154504403Y-84497379D01*
X154554645Y-84632086D01*
X154554649Y-84632093D01*
X154640809Y-84747187D01*
X154640812Y-84747190D01*
X154755906Y-84833350D01*
X154755913Y-84833354D01*
X154890620Y-84883596D01*
X154890627Y-84883598D01*
X154950155Y-84889999D01*
X154950172Y-84890000D01*
X155323000Y-84890000D01*
X155573000Y-84890000D01*
X155945828Y-84890000D01*
X155945844Y-84889999D01*
X156005372Y-84883598D01*
X156005379Y-84883596D01*
X156140086Y-84833354D01*
X156140093Y-84833350D01*
X156255187Y-84747190D01*
X156255190Y-84747187D01*
X156341350Y-84632093D01*
X156341354Y-84632086D01*
X156391596Y-84497379D01*
X156391598Y-84497372D01*
X156397999Y-84437844D01*
X156398000Y-84437827D01*
X156398000Y-84190000D01*
X155573000Y-84190000D01*
X155573000Y-84890000D01*
X155323000Y-84890000D01*
X155323000Y-84190000D01*
X154498000Y-84190000D01*
X154498000Y-84437844D01*
X153090518Y-84437844D01*
X153137913Y-84410480D01*
X154356991Y-83191400D01*
X154418312Y-83157917D01*
X154428485Y-83156144D01*
X154431997Y-83155681D01*
X154432000Y-83155682D01*
X154583546Y-83135730D01*
X154652578Y-83146496D01*
X154704834Y-83192875D01*
X154723719Y-83260144D01*
X154703238Y-83326945D01*
X154674041Y-83357934D01*
X154640811Y-83382810D01*
X154640809Y-83382812D01*
X154554649Y-83497906D01*
X154554645Y-83497913D01*
X154504403Y-83632620D01*
X154504401Y-83632627D01*
X154498000Y-83692155D01*
X154498000Y-83940000D01*
X155323000Y-83940000D01*
X155573000Y-83940000D01*
X156398000Y-83940000D01*
X156398000Y-83692172D01*
X156397999Y-83692155D01*
X156391598Y-83632627D01*
X156391596Y-83632620D01*
X156341354Y-83497913D01*
X156341350Y-83497906D01*
X156255190Y-83382812D01*
X156255187Y-83382809D01*
X156140093Y-83296649D01*
X156140086Y-83296645D01*
X156005379Y-83246403D01*
X156005372Y-83246401D01*
X155945844Y-83240000D01*
X155573000Y-83240000D01*
X155573000Y-83940000D01*
X155323000Y-83940000D01*
X155323000Y-83240000D01*
X154950172Y-83240000D01*
X154888132Y-83246670D01*
X154819372Y-83234264D01*
X154768235Y-83186653D01*
X154750956Y-83118954D01*
X154773021Y-83052660D01*
X154799386Y-83025008D01*
X154860282Y-82978282D01*
X154956536Y-82852841D01*
X155017044Y-82706762D01*
X155037682Y-82550000D01*
X155032018Y-82506980D01*
X155042783Y-82437946D01*
X155047561Y-82428811D01*
X155080707Y-82371402D01*
X155108000Y-82269541D01*
X155108000Y-82164087D01*
X155108000Y-81843777D01*
X155127685Y-81776738D01*
X155180489Y-81730983D01*
X155188668Y-81727595D01*
X155287326Y-81690798D01*
X155287326Y-81690797D01*
X155287331Y-81690796D01*
X155402546Y-81604546D01*
X155488796Y-81489331D01*
X155539091Y-81354483D01*
X155545500Y-81294873D01*
X155545499Y-80249128D01*
X155539091Y-80189517D01*
X155488884Y-80054906D01*
X155488797Y-80054671D01*
X155488793Y-80054664D01*
X155402547Y-79939455D01*
X155402544Y-79939452D01*
X155287335Y-79853206D01*
X155287328Y-79853202D01*
X155152486Y-79802910D01*
X155152485Y-79802909D01*
X155152483Y-79802909D01*
X155092873Y-79796500D01*
X155092863Y-79796500D01*
X154322129Y-79796500D01*
X154322123Y-79796501D01*
X154262516Y-79802908D01*
X154127671Y-79853202D01*
X154127664Y-79853206D01*
X154012455Y-79939452D01*
X154012452Y-79939455D01*
X153926206Y-80054664D01*
X153926202Y-80054671D01*
X153875908Y-80189517D01*
X153869501Y-80249116D01*
X153869501Y-80249123D01*
X153869500Y-80249135D01*
X153869500Y-81294870D01*
X153869501Y-81294876D01*
X153875908Y-81354483D01*
X153926202Y-81489328D01*
X153926206Y-81489335D01*
X154012452Y-81604544D01*
X154012455Y-81604547D01*
X154127664Y-81690793D01*
X154127673Y-81690798D01*
X154226332Y-81727595D01*
X154282266Y-81769466D01*
X154306684Y-81834930D01*
X154307000Y-81843777D01*
X154307000Y-81868945D01*
X154287315Y-81935984D01*
X154234511Y-81981739D01*
X154230453Y-81983506D01*
X154129160Y-82025463D01*
X154003718Y-82121718D01*
X153907463Y-82247160D01*
X153846956Y-82393237D01*
X153846956Y-82393238D01*
X153825855Y-82553513D01*
X153797588Y-82617409D01*
X153790597Y-82625008D01*
X152943556Y-83472049D01*
X152882233Y-83505534D01*
X152812541Y-83500550D01*
X152756609Y-83458680D01*
X152726412Y-83418342D01*
X152699546Y-83382454D01*
X152699544Y-83382453D01*
X152699544Y-83382452D01*
X152584335Y-83296206D01*
X152584328Y-83296202D01*
X152449482Y-83245908D01*
X152449483Y-83245908D01*
X152389883Y-83239501D01*
X152389881Y-83239500D01*
X152389873Y-83239500D01*
X152389864Y-83239500D01*
X151394129Y-83239500D01*
X151394123Y-83239501D01*
X151334516Y-83245908D01*
X151199671Y-83296202D01*
X151199664Y-83296206D01*
X151084455Y-83382452D01*
X151084452Y-83382455D01*
X150998206Y-83497664D01*
X150998202Y-83497671D01*
X150947908Y-83632517D01*
X150941501Y-83692116D01*
X150941500Y-83692135D01*
X150941500Y-84422744D01*
X150921815Y-84489783D01*
X150905181Y-84510425D01*
X150521522Y-84894084D01*
X150521518Y-84894090D01*
X150468792Y-84985412D01*
X150468793Y-84985413D01*
X150441500Y-85087273D01*
X150441500Y-86642729D01*
X150441500Y-86748183D01*
X150454727Y-86797547D01*
X150468793Y-86850045D01*
X150491331Y-86889080D01*
X150521520Y-86941369D01*
X150521522Y-86941371D01*
X151803617Y-88223466D01*
X151837102Y-88284789D01*
X151832118Y-88354481D01*
X151790246Y-88410414D01*
X151782233Y-88414977D01*
X151782415Y-88415249D01*
X151772260Y-88422033D01*
X151772260Y-88422034D01*
X151720001Y-88456952D01*
X151689399Y-88477399D01*
X151634033Y-88560260D01*
X151634032Y-88560264D01*
X151619500Y-88633321D01*
X151619500Y-90182678D01*
X151634032Y-90255735D01*
X151634033Y-90255739D01*
X151634034Y-90255740D01*
X151689399Y-90338601D01*
X151746834Y-90376977D01*
X151772260Y-90393966D01*
X151772264Y-90393967D01*
X151844691Y-90408374D01*
X151906602Y-90440759D01*
X151941176Y-90501474D01*
X151944500Y-90529991D01*
X151944500Y-92944482D01*
X151944500Y-93056518D01*
X151973497Y-93164737D01*
X152029515Y-93261763D01*
X152029517Y-93261765D01*
X152133181Y-93365429D01*
X152166666Y-93426752D01*
X152169500Y-93453110D01*
X152169500Y-94402517D01*
X152184354Y-94496304D01*
X152186930Y-94504231D01*
X152188925Y-94574072D01*
X152152845Y-94633905D01*
X152090145Y-94664734D01*
X152052814Y-94665489D01*
X151892001Y-94644318D01*
X151891999Y-94644318D01*
X151735239Y-94664955D01*
X151735237Y-94664956D01*
X151589160Y-94725463D01*
X151463718Y-94821718D01*
X151367463Y-94947160D01*
X151306956Y-95093237D01*
X151306955Y-95093239D01*
X151286318Y-95249998D01*
X151286318Y-95250001D01*
X151306955Y-95406760D01*
X151306956Y-95406762D01*
X151358272Y-95530651D01*
X151367464Y-95552841D01*
X151463718Y-95678282D01*
X151589159Y-95774536D01*
X151735238Y-95835044D01*
X151854798Y-95850784D01*
X151918695Y-95879050D01*
X151926294Y-95886042D01*
X152058321Y-96018069D01*
X152091806Y-96079392D01*
X152086822Y-96149084D01*
X152058321Y-96193431D01*
X151297517Y-96954234D01*
X151297513Y-96954240D01*
X151241498Y-97051260D01*
X151241497Y-97051263D01*
X151212500Y-97159482D01*
X151212500Y-102192390D01*
X151192815Y-102259429D01*
X151176181Y-102280071D01*
X150789517Y-102666734D01*
X150789514Y-102666739D01*
X150733498Y-102763760D01*
X150733497Y-102763763D01*
X150704500Y-102871982D01*
X150704500Y-103040444D01*
X150684815Y-103107483D01*
X150641447Y-103146359D01*
X150642237Y-103147634D01*
X150463960Y-103258017D01*
X150463958Y-103258019D01*
X150313237Y-103395418D01*
X150190327Y-103558178D01*
X150099422Y-103740739D01*
X150099417Y-103740752D01*
X150043602Y-103936917D01*
X150024785Y-104139999D01*
X150024785Y-104140000D01*
X150043602Y-104343082D01*
X150099417Y-104539247D01*
X150099422Y-104539260D01*
X150190327Y-104721821D01*
X150313237Y-104884581D01*
X150463958Y-105021980D01*
X150463960Y-105021982D01*
X150563141Y-105083392D01*
X150637363Y-105129348D01*
X150827544Y-105203024D01*
X151028024Y-105240500D01*
X151028026Y-105240500D01*
X151231974Y-105240500D01*
X151231976Y-105240500D01*
X151432456Y-105203024D01*
X151622637Y-105129348D01*
X151796041Y-105021981D01*
X151946764Y-104884579D01*
X152069673Y-104721821D01*
X152160582Y-104539250D01*
X152216397Y-104343083D01*
X152235215Y-104140000D01*
X152235215Y-104139999D01*
X152564785Y-104139999D01*
X152564785Y-104140000D01*
X152583602Y-104343082D01*
X152639417Y-104539247D01*
X152639422Y-104539260D01*
X152730327Y-104721821D01*
X152853237Y-104884581D01*
X153003958Y-105021980D01*
X153003960Y-105021982D01*
X153103141Y-105083392D01*
X153177363Y-105129348D01*
X153367544Y-105203024D01*
X153568024Y-105240500D01*
X153568026Y-105240500D01*
X153771974Y-105240500D01*
X153771976Y-105240500D01*
X153972456Y-105203024D01*
X154162637Y-105129348D01*
X154336041Y-105021981D01*
X154486764Y-104884579D01*
X154609673Y-104721821D01*
X154700582Y-104539250D01*
X154756397Y-104343083D01*
X154775215Y-104140000D01*
X154756397Y-103936917D01*
X154700582Y-103740750D01*
X154692093Y-103723702D01*
X154630977Y-103600964D01*
X154609673Y-103558179D01*
X154486764Y-103395421D01*
X154486762Y-103395418D01*
X154336041Y-103258019D01*
X154336039Y-103258017D01*
X154162642Y-103150655D01*
X154162635Y-103150651D01*
X154051204Y-103107483D01*
X153972456Y-103076976D01*
X153771976Y-103039500D01*
X153568024Y-103039500D01*
X153367544Y-103076976D01*
X153367541Y-103076976D01*
X153367541Y-103076977D01*
X153177364Y-103150651D01*
X153177357Y-103150655D01*
X153003960Y-103258017D01*
X153003958Y-103258019D01*
X152853237Y-103395418D01*
X152730327Y-103558178D01*
X152639422Y-103740739D01*
X152639417Y-103740752D01*
X152583602Y-103936917D01*
X152564785Y-104139999D01*
X152235215Y-104139999D01*
X152216397Y-103936917D01*
X152160582Y-103740750D01*
X152152093Y-103723702D01*
X152090977Y-103600964D01*
X152069673Y-103558179D01*
X151946764Y-103395421D01*
X151946762Y-103395418D01*
X151796042Y-103258020D01*
X151796041Y-103258019D01*
X151685613Y-103189645D01*
X151638978Y-103137617D01*
X151627874Y-103068635D01*
X151655827Y-103004601D01*
X151663199Y-102996548D01*
X151978484Y-102681264D01*
X151986872Y-102666737D01*
X152034503Y-102584237D01*
X152063500Y-102476018D01*
X152063500Y-97443109D01*
X152083185Y-97376070D01*
X152099815Y-97355432D01*
X152381811Y-97073435D01*
X152443132Y-97039952D01*
X152488886Y-97038645D01*
X152538481Y-97046500D01*
X152901518Y-97046499D01*
X152995304Y-97031646D01*
X153108342Y-96974050D01*
X153108349Y-96974042D01*
X153116241Y-96968311D01*
X153117142Y-96969552D01*
X153168974Y-96941239D01*
X153238667Y-96946212D01*
X153273536Y-96968617D01*
X153274056Y-96967902D01*
X153281953Y-96973639D01*
X153394855Y-97031166D01*
X153488514Y-97045999D01*
X153544999Y-97045998D01*
X153545000Y-97045998D01*
X153545000Y-96132500D01*
X153564685Y-96065461D01*
X153617489Y-96019706D01*
X153669000Y-96008500D01*
X153671000Y-96008500D01*
X153738039Y-96028185D01*
X153783794Y-96080989D01*
X153795000Y-96132500D01*
X153795000Y-97045999D01*
X153851479Y-97045999D01*
X153945149Y-97031164D01*
X153945155Y-97031162D01*
X154058041Y-96973643D01*
X154065944Y-96967902D01*
X154066941Y-96969274D01*
X154118278Y-96941237D01*
X154187971Y-96946216D01*
X154223311Y-96968927D01*
X154223759Y-96968311D01*
X154231653Y-96974045D01*
X154231658Y-96974050D01*
X154343746Y-97031162D01*
X154344698Y-97031647D01*
X154432116Y-97045491D01*
X154435311Y-97045998D01*
X154438475Y-97046499D01*
X154438481Y-97046500D01*
X154801518Y-97046499D01*
X154895304Y-97031646D01*
X155008342Y-96974050D01*
X155098050Y-96884342D01*
X155155646Y-96771304D01*
X155155646Y-96771302D01*
X155155647Y-96771301D01*
X155170499Y-96677524D01*
X155170500Y-96677519D01*
X155170499Y-95589482D01*
X155155646Y-95495696D01*
X155098050Y-95382658D01*
X155098046Y-95382654D01*
X155098045Y-95382652D01*
X155020324Y-95304931D01*
X155000618Y-95279250D01*
X154960487Y-95209741D01*
X154960483Y-95209736D01*
X154732514Y-94981767D01*
X154699029Y-94920444D01*
X154704013Y-94850752D01*
X154745885Y-94794819D01*
X154800799Y-94771612D01*
X154801512Y-94771499D01*
X154801518Y-94771499D01*
X154895304Y-94756646D01*
X155008342Y-94699050D01*
X155098050Y-94609342D01*
X155155646Y-94496304D01*
X155155646Y-94496302D01*
X155155647Y-94496301D01*
X155166888Y-94425322D01*
X155170500Y-94402519D01*
X155170499Y-93314482D01*
X155155646Y-93220696D01*
X155098050Y-93107658D01*
X155098046Y-93107654D01*
X155098045Y-93107652D01*
X155008347Y-93017954D01*
X155008344Y-93017952D01*
X155008342Y-93017950D01*
X154931517Y-92978805D01*
X154895301Y-92960352D01*
X154801524Y-92945500D01*
X154438482Y-92945500D01*
X154357519Y-92958323D01*
X154344696Y-92960354D01*
X154231658Y-93017950D01*
X154231657Y-93017951D01*
X154231652Y-93017954D01*
X154141954Y-93107652D01*
X154141951Y-93107657D01*
X154084352Y-93220698D01*
X154069500Y-93314475D01*
X154069500Y-94402517D01*
X154084354Y-94496305D01*
X154087369Y-94505582D01*
X154084321Y-94506572D01*
X154094142Y-94558883D01*
X154067861Y-94623622D01*
X154010752Y-94663875D01*
X153970762Y-94670500D01*
X153369238Y-94670500D01*
X153302199Y-94650815D01*
X153256444Y-94598011D01*
X153246500Y-94528853D01*
X153253762Y-94505950D01*
X153252631Y-94505583D01*
X153255647Y-94496301D01*
X153266888Y-94425322D01*
X153270500Y-94402519D01*
X153270499Y-93314482D01*
X153255646Y-93220696D01*
X153198050Y-93107658D01*
X153198046Y-93107654D01*
X153198045Y-93107652D01*
X153108347Y-93017954D01*
X153108344Y-93017952D01*
X153108342Y-93017950D01*
X152995304Y-92960354D01*
X152959404Y-92954667D01*
X152896271Y-92924738D01*
X152891124Y-92919876D01*
X152831819Y-92860571D01*
X152798334Y-92799248D01*
X152795500Y-92772890D01*
X152795500Y-92458728D01*
X152815185Y-92391689D01*
X152867989Y-92345934D01*
X152937147Y-92335990D01*
X152966955Y-92344168D01*
X152967759Y-92344500D01*
X152967763Y-92344503D01*
X153075982Y-92373500D01*
X155660500Y-92373500D01*
X155727539Y-92393185D01*
X155773294Y-92445989D01*
X155784500Y-92497500D01*
X155784500Y-102915500D01*
X155764815Y-102982539D01*
X155712011Y-103028294D01*
X155660500Y-103039500D01*
X155335323Y-103039500D01*
X155262264Y-103054032D01*
X155262260Y-103054033D01*
X155179399Y-103109399D01*
X155124033Y-103192260D01*
X155124032Y-103192264D01*
X155109500Y-103265321D01*
X155109500Y-105014678D01*
X155124032Y-105087735D01*
X155124033Y-105087739D01*
X155124034Y-105087740D01*
X155179399Y-105170601D01*
X155262260Y-105225966D01*
X155262264Y-105225967D01*
X155335321Y-105240499D01*
X155335324Y-105240500D01*
X155335326Y-105240500D01*
X157084676Y-105240500D01*
X157084677Y-105240499D01*
X157157740Y-105225966D01*
X157240601Y-105170601D01*
X157295966Y-105087740D01*
X157310500Y-105014674D01*
X157310500Y-103265326D01*
X157310500Y-103265323D01*
X157310499Y-103265321D01*
X157295967Y-103192264D01*
X157295966Y-103192260D01*
X157294219Y-103189645D01*
X157240601Y-103109399D01*
X157157740Y-103054034D01*
X157157739Y-103054033D01*
X157157735Y-103054032D01*
X157084677Y-103039500D01*
X157084674Y-103039500D01*
X156759500Y-103039500D01*
X156692461Y-103019815D01*
X156646706Y-102967011D01*
X156635500Y-102915500D01*
X156635500Y-92497500D01*
X156655185Y-92430461D01*
X156707989Y-92384706D01*
X156759500Y-92373500D01*
X158402999Y-92373500D01*
X158470038Y-92393185D01*
X158478485Y-92399124D01*
X158574157Y-92472535D01*
X158574158Y-92472535D01*
X158574159Y-92472536D01*
X158720238Y-92533044D01*
X158798619Y-92543363D01*
X158876999Y-92553682D01*
X158877000Y-92553682D01*
X158877001Y-92553682D01*
X158929254Y-92546802D01*
X159033762Y-92533044D01*
X159179841Y-92472536D01*
X159214438Y-92445989D01*
X159275515Y-92399124D01*
X159340685Y-92373930D01*
X159351001Y-92373500D01*
X159568016Y-92373500D01*
X159568018Y-92373500D01*
X159676237Y-92344503D01*
X159773263Y-92288485D01*
X162085938Y-89975808D01*
X162147259Y-89942325D01*
X162216951Y-89947309D01*
X162218410Y-89947864D01*
X162252576Y-89961099D01*
X162257544Y-89963024D01*
X162458024Y-90000500D01*
X162458026Y-90000500D01*
X162661974Y-90000500D01*
X162661976Y-90000500D01*
X162862456Y-89963024D01*
X163052637Y-89889348D01*
X163226041Y-89781981D01*
X163376764Y-89644579D01*
X163499673Y-89481821D01*
X163548500Y-89383763D01*
X163596003Y-89332526D01*
X163663666Y-89315105D01*
X163730006Y-89337031D01*
X163773961Y-89391342D01*
X163783500Y-89439035D01*
X163783500Y-90900964D01*
X163763815Y-90968003D01*
X163711011Y-91013758D01*
X163641853Y-91023702D01*
X163578297Y-90994677D01*
X163548500Y-90956236D01*
X163512110Y-90883157D01*
X163499673Y-90858179D01*
X163426598Y-90761412D01*
X163376762Y-90695418D01*
X163226041Y-90558019D01*
X163226039Y-90558017D01*
X163052642Y-90450655D01*
X163052635Y-90450651D01*
X162943504Y-90408374D01*
X162862456Y-90376976D01*
X162661976Y-90339500D01*
X162458024Y-90339500D01*
X162257544Y-90376976D01*
X162257541Y-90376976D01*
X162257541Y-90376977D01*
X162067364Y-90450651D01*
X162067357Y-90450655D01*
X161893960Y-90558017D01*
X161893958Y-90558019D01*
X161743237Y-90695418D01*
X161620327Y-90858178D01*
X161529422Y-91040739D01*
X161529417Y-91040752D01*
X161473602Y-91236917D01*
X161454785Y-91439999D01*
X161454785Y-91440000D01*
X161473602Y-91643082D01*
X161529417Y-91839247D01*
X161529422Y-91839260D01*
X161620327Y-92021821D01*
X161743237Y-92184581D01*
X161893958Y-92321980D01*
X161893960Y-92321982D01*
X161977165Y-92373500D01*
X162067363Y-92429348D01*
X162257544Y-92503024D01*
X162458024Y-92540500D01*
X162458026Y-92540500D01*
X162661974Y-92540500D01*
X162661976Y-92540500D01*
X162862456Y-92503024D01*
X163052637Y-92429348D01*
X163226041Y-92321981D01*
X163376764Y-92184579D01*
X163499673Y-92021821D01*
X163548500Y-91923763D01*
X163596003Y-91872526D01*
X163663666Y-91855105D01*
X163730006Y-91877031D01*
X163773961Y-91931342D01*
X163783500Y-91979035D01*
X163783500Y-93440964D01*
X163763815Y-93508003D01*
X163711011Y-93553758D01*
X163641853Y-93563702D01*
X163578297Y-93534677D01*
X163548500Y-93496236D01*
X163519826Y-93438653D01*
X163499673Y-93398179D01*
X163376764Y-93235421D01*
X163376762Y-93235418D01*
X163226041Y-93098019D01*
X163226039Y-93098017D01*
X163052642Y-92990655D01*
X163052635Y-92990651D01*
X162882492Y-92924738D01*
X162862456Y-92916976D01*
X162661976Y-92879500D01*
X162458024Y-92879500D01*
X162257544Y-92916976D01*
X162257541Y-92916976D01*
X162257541Y-92916977D01*
X162067364Y-92990651D01*
X162067357Y-92990655D01*
X161893960Y-93098017D01*
X161893958Y-93098019D01*
X161743237Y-93235418D01*
X161620327Y-93398178D01*
X161529422Y-93580739D01*
X161529417Y-93580752D01*
X161473602Y-93776917D01*
X161454785Y-93979999D01*
X161454785Y-93980000D01*
X161473602Y-94183082D01*
X161529417Y-94379247D01*
X161529422Y-94379260D01*
X161620327Y-94561821D01*
X161743237Y-94724581D01*
X161893958Y-94861980D01*
X161893960Y-94861982D01*
X161988380Y-94920444D01*
X162067363Y-94969348D01*
X162257544Y-95043024D01*
X162458024Y-95080500D01*
X162458026Y-95080500D01*
X162661974Y-95080500D01*
X162661976Y-95080500D01*
X162862456Y-95043024D01*
X163052637Y-94969348D01*
X163226041Y-94861981D01*
X163376764Y-94724579D01*
X163499673Y-94561821D01*
X163548500Y-94463763D01*
X163596003Y-94412526D01*
X163663666Y-94395105D01*
X163730006Y-94417031D01*
X163773961Y-94471342D01*
X163783500Y-94519035D01*
X163783500Y-95980964D01*
X163763815Y-96048003D01*
X163711011Y-96093758D01*
X163641853Y-96103702D01*
X163578297Y-96074677D01*
X163548500Y-96036236D01*
X163519826Y-95978653D01*
X163499673Y-95938179D01*
X163376764Y-95775421D01*
X163376762Y-95775418D01*
X163226041Y-95638019D01*
X163226039Y-95638017D01*
X163052642Y-95530655D01*
X163052635Y-95530651D01*
X162957546Y-95493814D01*
X162862456Y-95456976D01*
X162661976Y-95419500D01*
X162458024Y-95419500D01*
X162257544Y-95456976D01*
X162257541Y-95456976D01*
X162257541Y-95456977D01*
X162067364Y-95530651D01*
X162067357Y-95530655D01*
X161893960Y-95638017D01*
X161893958Y-95638019D01*
X161743237Y-95775418D01*
X161620327Y-95938178D01*
X161529422Y-96120739D01*
X161529417Y-96120752D01*
X161473602Y-96316917D01*
X161454785Y-96519999D01*
X161454785Y-96520000D01*
X161473602Y-96723082D01*
X161529417Y-96919247D01*
X161529422Y-96919260D01*
X161620327Y-97101821D01*
X161743237Y-97264581D01*
X161893958Y-97401980D01*
X161893960Y-97401982D01*
X161960383Y-97443109D01*
X162067363Y-97509348D01*
X162257544Y-97583024D01*
X162458024Y-97620500D01*
X162458026Y-97620500D01*
X162661974Y-97620500D01*
X162661976Y-97620500D01*
X162862456Y-97583024D01*
X163052637Y-97509348D01*
X163226041Y-97401981D01*
X163376764Y-97264579D01*
X163499673Y-97101821D01*
X163548500Y-97003763D01*
X163596003Y-96952526D01*
X163663666Y-96935105D01*
X163730006Y-96957031D01*
X163773961Y-97011342D01*
X163783500Y-97059035D01*
X163783500Y-98520964D01*
X163763815Y-98588003D01*
X163711011Y-98633758D01*
X163641853Y-98643702D01*
X163578297Y-98614677D01*
X163548500Y-98576236D01*
X163519826Y-98518653D01*
X163499673Y-98478179D01*
X163376764Y-98315421D01*
X163376762Y-98315418D01*
X163226041Y-98178019D01*
X163226039Y-98178017D01*
X163052642Y-98070655D01*
X163052635Y-98070651D01*
X162957546Y-98033814D01*
X162862456Y-97996976D01*
X162661976Y-97959500D01*
X162458024Y-97959500D01*
X162257544Y-97996976D01*
X162257541Y-97996976D01*
X162257541Y-97996977D01*
X162067364Y-98070651D01*
X162067357Y-98070655D01*
X161893960Y-98178017D01*
X161893958Y-98178019D01*
X161743237Y-98315418D01*
X161620327Y-98478178D01*
X161529422Y-98660739D01*
X161529417Y-98660752D01*
X161473602Y-98856917D01*
X161454785Y-99059999D01*
X161454785Y-99060000D01*
X161473602Y-99263082D01*
X161529417Y-99459247D01*
X161529422Y-99459260D01*
X161620327Y-99641821D01*
X161743237Y-99804581D01*
X161893958Y-99941980D01*
X161893960Y-99941982D01*
X161993141Y-100003392D01*
X162067363Y-100049348D01*
X162257544Y-100123024D01*
X162458024Y-100160500D01*
X162458026Y-100160500D01*
X162661974Y-100160500D01*
X162661976Y-100160500D01*
X162862456Y-100123024D01*
X163052637Y-100049348D01*
X163226041Y-99941981D01*
X163376764Y-99804579D01*
X163499673Y-99641821D01*
X163548500Y-99543763D01*
X163596003Y-99492526D01*
X163663666Y-99475105D01*
X163730006Y-99497031D01*
X163773961Y-99551342D01*
X163783500Y-99599035D01*
X163783500Y-101060964D01*
X163763815Y-101128003D01*
X163711011Y-101173758D01*
X163641853Y-101183702D01*
X163578297Y-101154677D01*
X163548500Y-101116236D01*
X163519826Y-101058653D01*
X163499673Y-101018179D01*
X163376764Y-100855421D01*
X163376762Y-100855418D01*
X163226041Y-100718019D01*
X163226039Y-100718017D01*
X163052642Y-100610655D01*
X163052635Y-100610651D01*
X162957546Y-100573814D01*
X162862456Y-100536976D01*
X162661976Y-100499500D01*
X162458024Y-100499500D01*
X162257544Y-100536976D01*
X162257541Y-100536976D01*
X162257541Y-100536977D01*
X162067364Y-100610651D01*
X162067357Y-100610655D01*
X161893960Y-100718017D01*
X161893958Y-100718019D01*
X161743237Y-100855418D01*
X161620327Y-101018178D01*
X161529422Y-101200739D01*
X161529417Y-101200752D01*
X161473602Y-101396917D01*
X161454785Y-101599999D01*
X161454785Y-101600000D01*
X161473602Y-101803082D01*
X161529417Y-101999247D01*
X161529422Y-101999260D01*
X161620327Y-102181821D01*
X161743237Y-102344581D01*
X161893958Y-102481980D01*
X161893960Y-102481982D01*
X161993141Y-102543392D01*
X162067363Y-102589348D01*
X162257544Y-102663024D01*
X162458024Y-102700500D01*
X162458026Y-102700500D01*
X162661974Y-102700500D01*
X162661976Y-102700500D01*
X162862456Y-102663024D01*
X163052637Y-102589348D01*
X163226041Y-102481981D01*
X163376764Y-102344579D01*
X163499673Y-102181821D01*
X163548500Y-102083763D01*
X163596003Y-102032526D01*
X163663666Y-102015105D01*
X163730006Y-102037031D01*
X163773961Y-102091342D01*
X163783500Y-102139035D01*
X163783500Y-103600964D01*
X163763815Y-103668003D01*
X163711011Y-103713758D01*
X163641853Y-103723702D01*
X163578297Y-103694677D01*
X163548500Y-103656236D01*
X163519826Y-103598653D01*
X163499673Y-103558179D01*
X163376764Y-103395421D01*
X163376762Y-103395418D01*
X163226041Y-103258019D01*
X163226039Y-103258017D01*
X163052642Y-103150655D01*
X163052635Y-103150651D01*
X162941204Y-103107483D01*
X162862456Y-103076976D01*
X162661976Y-103039500D01*
X162458024Y-103039500D01*
X162257544Y-103076976D01*
X162257541Y-103076976D01*
X162257541Y-103076977D01*
X162067364Y-103150651D01*
X162067357Y-103150655D01*
X161893960Y-103258017D01*
X161893958Y-103258019D01*
X161743237Y-103395418D01*
X161620327Y-103558178D01*
X161529422Y-103740739D01*
X161529417Y-103740752D01*
X161473602Y-103936917D01*
X161454785Y-104139999D01*
X161454785Y-104140000D01*
X161473602Y-104343082D01*
X161529417Y-104539247D01*
X161529422Y-104539260D01*
X161620327Y-104721821D01*
X161743237Y-104884581D01*
X161893958Y-105021980D01*
X161893960Y-105021982D01*
X161993141Y-105083392D01*
X162067363Y-105129348D01*
X162257544Y-105203024D01*
X162458024Y-105240500D01*
X162458026Y-105240500D01*
X162661974Y-105240500D01*
X162661976Y-105240500D01*
X162862456Y-105203024D01*
X163052637Y-105129348D01*
X163226041Y-105021981D01*
X163376764Y-104884579D01*
X163499673Y-104721821D01*
X163548500Y-104623763D01*
X163596003Y-104572526D01*
X163663666Y-104555105D01*
X163730006Y-104577031D01*
X163773961Y-104631342D01*
X163783500Y-104679035D01*
X163783500Y-105366500D01*
X163763815Y-105433539D01*
X163711011Y-105479294D01*
X163659500Y-105490500D01*
X143680500Y-105490500D01*
X143613461Y-105470815D01*
X143567706Y-105418011D01*
X143556500Y-105366500D01*
X143556500Y-104679035D01*
X143576185Y-104611996D01*
X143628989Y-104566241D01*
X143698147Y-104556297D01*
X143761703Y-104585322D01*
X143791500Y-104623763D01*
X143840327Y-104721821D01*
X143963237Y-104884581D01*
X144113958Y-105021980D01*
X144113960Y-105021982D01*
X144213141Y-105083392D01*
X144287363Y-105129348D01*
X144477544Y-105203024D01*
X144678024Y-105240500D01*
X144678026Y-105240500D01*
X144881974Y-105240500D01*
X144881976Y-105240500D01*
X145082456Y-105203024D01*
X145272637Y-105129348D01*
X145446041Y-105021981D01*
X145596764Y-104884579D01*
X145719673Y-104721821D01*
X145810582Y-104539250D01*
X145866397Y-104343083D01*
X145885215Y-104140000D01*
X145866397Y-103936917D01*
X145810582Y-103740750D01*
X145802093Y-103723702D01*
X145740977Y-103600964D01*
X145719673Y-103558179D01*
X145596764Y-103395421D01*
X145596762Y-103395418D01*
X145446041Y-103258019D01*
X145446039Y-103258017D01*
X145272642Y-103150655D01*
X145272635Y-103150651D01*
X145161204Y-103107483D01*
X145082456Y-103076976D01*
X144881976Y-103039500D01*
X144678024Y-103039500D01*
X144477544Y-103076976D01*
X144477541Y-103076976D01*
X144477541Y-103076977D01*
X144287364Y-103150651D01*
X144287357Y-103150655D01*
X144113960Y-103258017D01*
X144113958Y-103258019D01*
X143963237Y-103395418D01*
X143840327Y-103558178D01*
X143791500Y-103656236D01*
X143743997Y-103707473D01*
X143676334Y-103724894D01*
X143609994Y-103702968D01*
X143566039Y-103648657D01*
X143556500Y-103600964D01*
X143556500Y-102139035D01*
X143576185Y-102071996D01*
X143628989Y-102026241D01*
X143698147Y-102016297D01*
X143761703Y-102045322D01*
X143791500Y-102083763D01*
X143840327Y-102181821D01*
X143963237Y-102344581D01*
X144113958Y-102481980D01*
X144113960Y-102481982D01*
X144213141Y-102543392D01*
X144287363Y-102589348D01*
X144477544Y-102663024D01*
X144678024Y-102700500D01*
X144678026Y-102700500D01*
X144881974Y-102700500D01*
X144881976Y-102700500D01*
X145082456Y-102663024D01*
X145272637Y-102589348D01*
X145446041Y-102481981D01*
X145596764Y-102344579D01*
X145719673Y-102181821D01*
X145810582Y-101999250D01*
X145866397Y-101803083D01*
X145885215Y-101600000D01*
X145866397Y-101396917D01*
X145810582Y-101200750D01*
X145802093Y-101183702D01*
X145740977Y-101060964D01*
X145719673Y-101018179D01*
X145596764Y-100855421D01*
X145596762Y-100855418D01*
X145446041Y-100718019D01*
X145446039Y-100718017D01*
X145272642Y-100610655D01*
X145272635Y-100610651D01*
X145177546Y-100573814D01*
X145082456Y-100536976D01*
X144881976Y-100499500D01*
X144678024Y-100499500D01*
X144477544Y-100536976D01*
X144477541Y-100536976D01*
X144477541Y-100536977D01*
X144287364Y-100610651D01*
X144287357Y-100610655D01*
X144113960Y-100718017D01*
X144113958Y-100718019D01*
X143963237Y-100855418D01*
X143840327Y-101018178D01*
X143791500Y-101116236D01*
X143743997Y-101167473D01*
X143676334Y-101184894D01*
X143609994Y-101162968D01*
X143566039Y-101108657D01*
X143556500Y-101060964D01*
X143556500Y-99599035D01*
X143576185Y-99531996D01*
X143628989Y-99486241D01*
X143698147Y-99476297D01*
X143761703Y-99505322D01*
X143791500Y-99543763D01*
X143840327Y-99641821D01*
X143963237Y-99804581D01*
X144113958Y-99941980D01*
X144113960Y-99941982D01*
X144213141Y-100003392D01*
X144287363Y-100049348D01*
X144477544Y-100123024D01*
X144678024Y-100160500D01*
X144678026Y-100160500D01*
X144881974Y-100160500D01*
X144881976Y-100160500D01*
X145082456Y-100123024D01*
X145272637Y-100049348D01*
X145446041Y-99941981D01*
X145596764Y-99804579D01*
X145719673Y-99641821D01*
X145810582Y-99459250D01*
X145866397Y-99263083D01*
X145885215Y-99060000D01*
X145866397Y-98856917D01*
X145810582Y-98660750D01*
X145802093Y-98643702D01*
X145740977Y-98520964D01*
X145719673Y-98478179D01*
X145596764Y-98315421D01*
X145596762Y-98315418D01*
X145446041Y-98178019D01*
X145446039Y-98178017D01*
X145272642Y-98070655D01*
X145272635Y-98070651D01*
X145177546Y-98033814D01*
X145082456Y-97996976D01*
X144881976Y-97959500D01*
X144678024Y-97959500D01*
X144477544Y-97996976D01*
X144477541Y-97996976D01*
X144477541Y-97996977D01*
X144287364Y-98070651D01*
X144287357Y-98070655D01*
X144113960Y-98178017D01*
X144113958Y-98178019D01*
X143963237Y-98315418D01*
X143840327Y-98478178D01*
X143791500Y-98576236D01*
X143743997Y-98627473D01*
X143676334Y-98644894D01*
X143609994Y-98622968D01*
X143566039Y-98568657D01*
X143556500Y-98520964D01*
X143556500Y-97059035D01*
X143576185Y-96991996D01*
X143628989Y-96946241D01*
X143698147Y-96936297D01*
X143761703Y-96965322D01*
X143791500Y-97003763D01*
X143840327Y-97101821D01*
X143963237Y-97264581D01*
X144113958Y-97401980D01*
X144113960Y-97401982D01*
X144180383Y-97443109D01*
X144287363Y-97509348D01*
X144477544Y-97583024D01*
X144678024Y-97620500D01*
X144678026Y-97620500D01*
X144881974Y-97620500D01*
X144881976Y-97620500D01*
X145082456Y-97583024D01*
X145272637Y-97509348D01*
X145446041Y-97401981D01*
X145596764Y-97264579D01*
X145719673Y-97101821D01*
X145810582Y-96919250D01*
X145866397Y-96723083D01*
X145885215Y-96520000D01*
X145866397Y-96316917D01*
X145810582Y-96120750D01*
X145802093Y-96103702D01*
X145740977Y-95980964D01*
X145719673Y-95938179D01*
X145596764Y-95775421D01*
X145596762Y-95775418D01*
X145446041Y-95638019D01*
X145446039Y-95638017D01*
X145272642Y-95530655D01*
X145272635Y-95530651D01*
X145177546Y-95493814D01*
X145082456Y-95456976D01*
X144881976Y-95419500D01*
X144678024Y-95419500D01*
X144477544Y-95456976D01*
X144477541Y-95456976D01*
X144477541Y-95456977D01*
X144287364Y-95530651D01*
X144287357Y-95530655D01*
X144113960Y-95638017D01*
X144113958Y-95638019D01*
X143963237Y-95775418D01*
X143840327Y-95938178D01*
X143791500Y-96036236D01*
X143743997Y-96087473D01*
X143676334Y-96104894D01*
X143609994Y-96082968D01*
X143566039Y-96028657D01*
X143556500Y-95980964D01*
X143556500Y-94519035D01*
X143576185Y-94451996D01*
X143628989Y-94406241D01*
X143698147Y-94396297D01*
X143761703Y-94425322D01*
X143791500Y-94463763D01*
X143840327Y-94561821D01*
X143963237Y-94724581D01*
X144113958Y-94861980D01*
X144113960Y-94861982D01*
X144208380Y-94920444D01*
X144287363Y-94969348D01*
X144477544Y-95043024D01*
X144678024Y-95080500D01*
X144678026Y-95080500D01*
X144881974Y-95080500D01*
X144881976Y-95080500D01*
X145082456Y-95043024D01*
X145272637Y-94969348D01*
X145446041Y-94861981D01*
X145596764Y-94724579D01*
X145719673Y-94561821D01*
X145810582Y-94379250D01*
X145866397Y-94183083D01*
X145885215Y-93980000D01*
X145866397Y-93776917D01*
X145810582Y-93580750D01*
X145802093Y-93563702D01*
X145740977Y-93440964D01*
X145719673Y-93398179D01*
X145596764Y-93235421D01*
X145596762Y-93235418D01*
X145446041Y-93098019D01*
X145446039Y-93098017D01*
X145272642Y-92990655D01*
X145272635Y-92990651D01*
X145102492Y-92924738D01*
X145082456Y-92916976D01*
X144881976Y-92879500D01*
X144678024Y-92879500D01*
X144477544Y-92916976D01*
X144477541Y-92916976D01*
X144477541Y-92916977D01*
X144287364Y-92990651D01*
X144287357Y-92990655D01*
X144113960Y-93098017D01*
X144113958Y-93098019D01*
X143963237Y-93235418D01*
X143840327Y-93398178D01*
X143791500Y-93496236D01*
X143743997Y-93547473D01*
X143676334Y-93564894D01*
X143609994Y-93542968D01*
X143566039Y-93488657D01*
X143556500Y-93440964D01*
X143556500Y-91979035D01*
X143576185Y-91911996D01*
X143628989Y-91866241D01*
X143698147Y-91856297D01*
X143761703Y-91885322D01*
X143791500Y-91923763D01*
X143840327Y-92021821D01*
X143963237Y-92184581D01*
X144113958Y-92321980D01*
X144113960Y-92321982D01*
X144197165Y-92373500D01*
X144287363Y-92429348D01*
X144477544Y-92503024D01*
X144678024Y-92540500D01*
X144678026Y-92540500D01*
X144881974Y-92540500D01*
X144881976Y-92540500D01*
X145082456Y-92503024D01*
X145272637Y-92429348D01*
X145446041Y-92321981D01*
X145596764Y-92184579D01*
X145719673Y-92021821D01*
X145810582Y-91839250D01*
X145866397Y-91643083D01*
X145885215Y-91440000D01*
X145866397Y-91236917D01*
X145810582Y-91040750D01*
X145804850Y-91029239D01*
X145732110Y-90883157D01*
X145719673Y-90858179D01*
X145646598Y-90761412D01*
X145596762Y-90695418D01*
X145446041Y-90558019D01*
X145446039Y-90558017D01*
X145272642Y-90450655D01*
X145272635Y-90450651D01*
X145163504Y-90408374D01*
X145082456Y-90376976D01*
X144881976Y-90339500D01*
X144678024Y-90339500D01*
X144477544Y-90376976D01*
X144477541Y-90376976D01*
X144477541Y-90376977D01*
X144287364Y-90450651D01*
X144287357Y-90450655D01*
X144113960Y-90558017D01*
X144113958Y-90558019D01*
X143963237Y-90695418D01*
X143840327Y-90858178D01*
X143791500Y-90956236D01*
X143743997Y-91007473D01*
X143676334Y-91024894D01*
X143609994Y-91002968D01*
X143566039Y-90948657D01*
X143556500Y-90900964D01*
X143556500Y-89439035D01*
X143576185Y-89371996D01*
X143628989Y-89326241D01*
X143698147Y-89316297D01*
X143761703Y-89345322D01*
X143791500Y-89383763D01*
X143840327Y-89481821D01*
X143963237Y-89644581D01*
X144113958Y-89781980D01*
X144113960Y-89781982D01*
X144213141Y-89843392D01*
X144287363Y-89889348D01*
X144477544Y-89963024D01*
X144678024Y-90000500D01*
X144678026Y-90000500D01*
X144881974Y-90000500D01*
X144881976Y-90000500D01*
X145082456Y-89963024D01*
X145272637Y-89889348D01*
X145446041Y-89781981D01*
X145596764Y-89644579D01*
X145719673Y-89481821D01*
X145810582Y-89299250D01*
X145866397Y-89103083D01*
X145885215Y-88900000D01*
X145866397Y-88696917D01*
X145810582Y-88500750D01*
X145802093Y-88483702D01*
X145728054Y-88335011D01*
X145719673Y-88318179D01*
X145596764Y-88155421D01*
X145596762Y-88155418D01*
X145446041Y-88018019D01*
X145446039Y-88018017D01*
X145272642Y-87910655D01*
X145272635Y-87910651D01*
X145177546Y-87873814D01*
X145082456Y-87836976D01*
X144881976Y-87799500D01*
X144678024Y-87799500D01*
X144477544Y-87836976D01*
X144477541Y-87836976D01*
X144477541Y-87836977D01*
X144287364Y-87910651D01*
X144287357Y-87910655D01*
X144113960Y-88018017D01*
X144113958Y-88018019D01*
X143963237Y-88155418D01*
X143840327Y-88318178D01*
X143791500Y-88416236D01*
X143743997Y-88467473D01*
X143676334Y-88484894D01*
X143609994Y-88462968D01*
X143566039Y-88408657D01*
X143556500Y-88360964D01*
X143556500Y-86897912D01*
X143576185Y-86830873D01*
X143628989Y-86785118D01*
X143698147Y-86775174D01*
X143761703Y-86804199D01*
X143791500Y-86842641D01*
X143840753Y-86941554D01*
X143963608Y-87104242D01*
X144114260Y-87241578D01*
X144287584Y-87348897D01*
X144477678Y-87422539D01*
X144655000Y-87455686D01*
X144655000Y-86844144D01*
X144714174Y-86860000D01*
X144845826Y-86860000D01*
X144905000Y-86844144D01*
X144905000Y-87455686D01*
X145082321Y-87422539D01*
X145272415Y-87348897D01*
X145445739Y-87241578D01*
X145596391Y-87104242D01*
X145719245Y-86941556D01*
X145810113Y-86759069D01*
X145810116Y-86759063D01*
X145865903Y-86562989D01*
X145873130Y-86485000D01*
X145264144Y-86485000D01*
X145280000Y-86425826D01*
X145280000Y-86294174D01*
X145264144Y-86235000D01*
X145873130Y-86235000D01*
X145873130Y-86234999D01*
X145865902Y-86157010D01*
X145865902Y-86157007D01*
X145810116Y-85960936D01*
X145810113Y-85960930D01*
X145719245Y-85778443D01*
X145596391Y-85615757D01*
X145445739Y-85478421D01*
X145272415Y-85371102D01*
X145082321Y-85297460D01*
X144905000Y-85264312D01*
X144905000Y-85875855D01*
X144845826Y-85860000D01*
X144714174Y-85860000D01*
X144655000Y-85875855D01*
X144655000Y-85264312D01*
X144477678Y-85297460D01*
X144287584Y-85371102D01*
X144114260Y-85478421D01*
X143963608Y-85615757D01*
X143840754Y-85778443D01*
X143791500Y-85877359D01*
X143743997Y-85928596D01*
X143676334Y-85946017D01*
X143609994Y-85924091D01*
X143566039Y-85869780D01*
X143556500Y-85822087D01*
X143556500Y-84359035D01*
X143576185Y-84291996D01*
X143628989Y-84246241D01*
X143698147Y-84236297D01*
X143761703Y-84265322D01*
X143791500Y-84303763D01*
X143840327Y-84401821D01*
X143963237Y-84564581D01*
X144113958Y-84701980D01*
X144113960Y-84701982D01*
X144186969Y-84747187D01*
X144287363Y-84809348D01*
X144477544Y-84883024D01*
X144678024Y-84920500D01*
X144678026Y-84920500D01*
X144881974Y-84920500D01*
X144881976Y-84920500D01*
X145082456Y-84883024D01*
X145272637Y-84809348D01*
X145446041Y-84701981D01*
X145596764Y-84564579D01*
X145719673Y-84401821D01*
X145810582Y-84219250D01*
X145866397Y-84023083D01*
X145885215Y-83820000D01*
X145866397Y-83616917D01*
X145810582Y-83420750D01*
X145802093Y-83403702D01*
X145723522Y-83245909D01*
X145719673Y-83238179D01*
X145613710Y-83097861D01*
X145596762Y-83075418D01*
X145446041Y-82938019D01*
X145446039Y-82938017D01*
X145272642Y-82830655D01*
X145272635Y-82830651D01*
X145177546Y-82793814D01*
X145082456Y-82756976D01*
X144881976Y-82719500D01*
X144678024Y-82719500D01*
X144477544Y-82756976D01*
X144477541Y-82756976D01*
X144477541Y-82756977D01*
X144287364Y-82830651D01*
X144287357Y-82830655D01*
X144113960Y-82938017D01*
X144113958Y-82938019D01*
X143963237Y-83075418D01*
X143840327Y-83238178D01*
X143791500Y-83336236D01*
X143743997Y-83387473D01*
X143676334Y-83404894D01*
X143609994Y-83382968D01*
X143566039Y-83328657D01*
X143556500Y-83280964D01*
X143556500Y-81819035D01*
X143576185Y-81751996D01*
X143628989Y-81706241D01*
X143698147Y-81696297D01*
X143761703Y-81725322D01*
X143791500Y-81763763D01*
X143840327Y-81861821D01*
X143963237Y-82024581D01*
X144113958Y-82161980D01*
X144113960Y-82161982D01*
X144117360Y-82164087D01*
X144287363Y-82269348D01*
X144477544Y-82343024D01*
X144678024Y-82380500D01*
X144678026Y-82380500D01*
X144881974Y-82380500D01*
X144881976Y-82380500D01*
X145082456Y-82343024D01*
X145272637Y-82269348D01*
X145446041Y-82161981D01*
X145596764Y-82024579D01*
X145719673Y-81861821D01*
X145810582Y-81679250D01*
X145866397Y-81483083D01*
X145883840Y-81294844D01*
X151795000Y-81294844D01*
X151801401Y-81354372D01*
X151801403Y-81354379D01*
X151851645Y-81489086D01*
X151851649Y-81489093D01*
X151937809Y-81604187D01*
X151937812Y-81604190D01*
X152052906Y-81690350D01*
X152052913Y-81690354D01*
X152187620Y-81740596D01*
X152187627Y-81740598D01*
X152247155Y-81746999D01*
X152247172Y-81747000D01*
X152507500Y-81747000D01*
X152757500Y-81747000D01*
X153017828Y-81747000D01*
X153017844Y-81746999D01*
X153077372Y-81740598D01*
X153077379Y-81740596D01*
X153212086Y-81690354D01*
X153212093Y-81690350D01*
X153327187Y-81604190D01*
X153327190Y-81604187D01*
X153413350Y-81489093D01*
X153413354Y-81489086D01*
X153463596Y-81354379D01*
X153463598Y-81354372D01*
X153469999Y-81294844D01*
X153470000Y-81294827D01*
X153470000Y-80897000D01*
X152757500Y-80897000D01*
X152757500Y-81747000D01*
X152507500Y-81747000D01*
X152507500Y-80897000D01*
X151795000Y-80897000D01*
X151795000Y-81294844D01*
X145883840Y-81294844D01*
X145885215Y-81280000D01*
X145866397Y-81076917D01*
X145810582Y-80880750D01*
X145802093Y-80863702D01*
X145740977Y-80740964D01*
X145719673Y-80698179D01*
X145596764Y-80535421D01*
X145596762Y-80535418D01*
X145446041Y-80398019D01*
X145446039Y-80398017D01*
X145272642Y-80290655D01*
X145272635Y-80290651D01*
X145165520Y-80249155D01*
X151795000Y-80249155D01*
X151795000Y-80647000D01*
X152507500Y-80647000D01*
X152757500Y-80647000D01*
X153470000Y-80647000D01*
X153470000Y-80249172D01*
X153469999Y-80249155D01*
X153463598Y-80189627D01*
X153463596Y-80189620D01*
X153413354Y-80054913D01*
X153413350Y-80054906D01*
X153327190Y-79939812D01*
X153327187Y-79939809D01*
X153212093Y-79853649D01*
X153212086Y-79853645D01*
X153077379Y-79803403D01*
X153077372Y-79803401D01*
X153017844Y-79797000D01*
X152757500Y-79797000D01*
X152757500Y-80647000D01*
X152507500Y-80647000D01*
X152507500Y-79797000D01*
X152247155Y-79797000D01*
X152187627Y-79803401D01*
X152187620Y-79803403D01*
X152052913Y-79853645D01*
X152052906Y-79853649D01*
X151937812Y-79939809D01*
X151937809Y-79939812D01*
X151851649Y-80054906D01*
X151851645Y-80054913D01*
X151801403Y-80189620D01*
X151801401Y-80189627D01*
X151795000Y-80249155D01*
X145165520Y-80249155D01*
X145082456Y-80216976D01*
X144881976Y-80179500D01*
X144678024Y-80179500D01*
X144477544Y-80216976D01*
X144477541Y-80216976D01*
X144477541Y-80216977D01*
X144287364Y-80290651D01*
X144287357Y-80290655D01*
X144113960Y-80398017D01*
X144113958Y-80398019D01*
X143963237Y-80535418D01*
X143840327Y-80698178D01*
X143791500Y-80796236D01*
X143743997Y-80847473D01*
X143676334Y-80864894D01*
X143609994Y-80842968D01*
X143566039Y-80788657D01*
X143556500Y-80740964D01*
X143556500Y-79279035D01*
X143576185Y-79211996D01*
X143628989Y-79166241D01*
X143698147Y-79156297D01*
X143761703Y-79185322D01*
X143791500Y-79223763D01*
X143840327Y-79321821D01*
X143963237Y-79484581D01*
X144113958Y-79621980D01*
X144113960Y-79621982D01*
X144213141Y-79683392D01*
X144287363Y-79729348D01*
X144477544Y-79803024D01*
X144678024Y-79840500D01*
X144678026Y-79840500D01*
X144881974Y-79840500D01*
X144881976Y-79840500D01*
X145082456Y-79803024D01*
X145272637Y-79729348D01*
X145446041Y-79621981D01*
X145596764Y-79484579D01*
X145719673Y-79321821D01*
X145810582Y-79139250D01*
X145866397Y-78943083D01*
X145885215Y-78740000D01*
X145866397Y-78536917D01*
X145810582Y-78340750D01*
X145802093Y-78323702D01*
X145740977Y-78200964D01*
X145719673Y-78158179D01*
X145596764Y-77995421D01*
X145596762Y-77995418D01*
X145446041Y-77858019D01*
X145446039Y-77858017D01*
X145272642Y-77750655D01*
X145272635Y-77750651D01*
X145177546Y-77713814D01*
X145082456Y-77676976D01*
X144881976Y-77639500D01*
X144678024Y-77639500D01*
X144477544Y-77676976D01*
X144477541Y-77676976D01*
X144477541Y-77676977D01*
X144287364Y-77750651D01*
X144287357Y-77750655D01*
X144113960Y-77858017D01*
X144113958Y-77858019D01*
X143963237Y-77995418D01*
X143840327Y-78158178D01*
X143791500Y-78256236D01*
X143743997Y-78307473D01*
X143676334Y-78324894D01*
X143609994Y-78302968D01*
X143566039Y-78248657D01*
X143556500Y-78200964D01*
X143556500Y-77370628D01*
X150802000Y-77370628D01*
X150816503Y-77443540D01*
X150816505Y-77443544D01*
X150871760Y-77526239D01*
X150954455Y-77581494D01*
X150954459Y-77581496D01*
X151027371Y-77595999D01*
X151027374Y-77596000D01*
X151452000Y-77596000D01*
X151702000Y-77596000D01*
X152126626Y-77596000D01*
X152126628Y-77595999D01*
X152199540Y-77581496D01*
X152199544Y-77581494D01*
X152282239Y-77526239D01*
X152337494Y-77443544D01*
X152337496Y-77443540D01*
X152351999Y-77370628D01*
X154952000Y-77370628D01*
X154966503Y-77443540D01*
X154966505Y-77443544D01*
X155021760Y-77526239D01*
X155104455Y-77581494D01*
X155104459Y-77581496D01*
X155177371Y-77595999D01*
X155177374Y-77596000D01*
X155602000Y-77596000D01*
X155852000Y-77596000D01*
X156276626Y-77596000D01*
X156276628Y-77595999D01*
X156349540Y-77581496D01*
X156349544Y-77581494D01*
X156432239Y-77526239D01*
X156487494Y-77443544D01*
X156487496Y-77443540D01*
X156501999Y-77370628D01*
X156502000Y-77370626D01*
X156502000Y-77146000D01*
X155852000Y-77146000D01*
X155852000Y-77596000D01*
X155602000Y-77596000D01*
X155602000Y-77146000D01*
X154952000Y-77146000D01*
X154952000Y-77370628D01*
X152351999Y-77370628D01*
X152352000Y-77370626D01*
X152352000Y-77146000D01*
X151702000Y-77146000D01*
X151702000Y-77596000D01*
X151452000Y-77596000D01*
X151452000Y-77146000D01*
X150802000Y-77146000D01*
X150802000Y-77370628D01*
X143556500Y-77370628D01*
X143556500Y-76739035D01*
X143576185Y-76671996D01*
X143628989Y-76626241D01*
X143698147Y-76616297D01*
X143761703Y-76645322D01*
X143791500Y-76683763D01*
X143840327Y-76781821D01*
X143963237Y-76944581D01*
X144113958Y-77081980D01*
X144113960Y-77081982D01*
X144213141Y-77143392D01*
X144287363Y-77189348D01*
X144477544Y-77263024D01*
X144678024Y-77300500D01*
X144678026Y-77300500D01*
X144881974Y-77300500D01*
X144881976Y-77300500D01*
X145082456Y-77263024D01*
X145272637Y-77189348D01*
X145446041Y-77081981D01*
X145596764Y-76944579D01*
X145719673Y-76781821D01*
X145774670Y-76671371D01*
X150802000Y-76671371D01*
X150802000Y-76896000D01*
X151452000Y-76896000D01*
X151702000Y-76896000D01*
X152352000Y-76896000D01*
X152352000Y-76671373D01*
X152351999Y-76671371D01*
X154952000Y-76671371D01*
X154952000Y-76896000D01*
X155602000Y-76896000D01*
X155852000Y-76896000D01*
X156502000Y-76896000D01*
X156502000Y-76671373D01*
X156501999Y-76671371D01*
X156487496Y-76598459D01*
X156487494Y-76598455D01*
X156432239Y-76515760D01*
X156349544Y-76460505D01*
X156349540Y-76460503D01*
X156276627Y-76446000D01*
X155852000Y-76446000D01*
X155852000Y-76896000D01*
X155602000Y-76896000D01*
X155602000Y-76446000D01*
X155177373Y-76446000D01*
X155104459Y-76460503D01*
X155104455Y-76460505D01*
X155021760Y-76515760D01*
X154966505Y-76598455D01*
X154966503Y-76598459D01*
X154952000Y-76671371D01*
X152351999Y-76671371D01*
X152337496Y-76598459D01*
X152337494Y-76598455D01*
X152282239Y-76515760D01*
X152199544Y-76460505D01*
X152199540Y-76460503D01*
X152126627Y-76446000D01*
X151702000Y-76446000D01*
X151702000Y-76896000D01*
X151452000Y-76896000D01*
X151452000Y-76446000D01*
X151027373Y-76446000D01*
X150954459Y-76460503D01*
X150954455Y-76460505D01*
X150871760Y-76515760D01*
X150816505Y-76598455D01*
X150816503Y-76598459D01*
X150802000Y-76671371D01*
X145774670Y-76671371D01*
X145810582Y-76599250D01*
X145866397Y-76403083D01*
X145885215Y-76200000D01*
X145866397Y-75996917D01*
X145810582Y-75800750D01*
X145802093Y-75783702D01*
X145740977Y-75660964D01*
X145719673Y-75618179D01*
X145612820Y-75476682D01*
X145596762Y-75455418D01*
X145446041Y-75318019D01*
X145446039Y-75318017D01*
X145272642Y-75210655D01*
X145272635Y-75210651D01*
X145177546Y-75173814D01*
X145082456Y-75136976D01*
X144881976Y-75099500D01*
X144678024Y-75099500D01*
X144477544Y-75136976D01*
X144477541Y-75136976D01*
X144477541Y-75136977D01*
X144287364Y-75210651D01*
X144287357Y-75210655D01*
X144113960Y-75318017D01*
X144113958Y-75318019D01*
X143963237Y-75455418D01*
X143840327Y-75618178D01*
X143791500Y-75716236D01*
X143743997Y-75767473D01*
X143676334Y-75784894D01*
X143609994Y-75762968D01*
X143566039Y-75708657D01*
X143556500Y-75660964D01*
X143556500Y-74199035D01*
X143576185Y-74131996D01*
X143628989Y-74086241D01*
X143698147Y-74076297D01*
X143761703Y-74105322D01*
X143791500Y-74143763D01*
X143840327Y-74241821D01*
X143963237Y-74404581D01*
X144113958Y-74541980D01*
X144113960Y-74541982D01*
X144213141Y-74603392D01*
X144287363Y-74649348D01*
X144477544Y-74723024D01*
X144678024Y-74760500D01*
X144678026Y-74760500D01*
X144881974Y-74760500D01*
X144881976Y-74760500D01*
X145082456Y-74723024D01*
X145272637Y-74649348D01*
X145446041Y-74541981D01*
X145468704Y-74521321D01*
X150826500Y-74521321D01*
X150826500Y-75220678D01*
X150841032Y-75293735D01*
X150841033Y-75293739D01*
X150841034Y-75293740D01*
X150896399Y-75376601D01*
X150979260Y-75431966D01*
X150979264Y-75431967D01*
X151052321Y-75446499D01*
X151052324Y-75446500D01*
X151052326Y-75446500D01*
X151397532Y-75446500D01*
X151437263Y-75454402D01*
X151437387Y-75453940D01*
X151444442Y-75455830D01*
X151444981Y-75455937D01*
X151445238Y-75456044D01*
X151523619Y-75466363D01*
X151601999Y-75476682D01*
X151602000Y-75476682D01*
X151602001Y-75476682D01*
X151654254Y-75469802D01*
X151758762Y-75456044D01*
X151759018Y-75455937D01*
X151759557Y-75455830D01*
X151766613Y-75453940D01*
X151766736Y-75454402D01*
X151806468Y-75446500D01*
X152151676Y-75446500D01*
X152151677Y-75446499D01*
X152224740Y-75431966D01*
X152307601Y-75376601D01*
X152318935Y-75359637D01*
X152341004Y-75326610D01*
X152394616Y-75281804D01*
X152444106Y-75271500D01*
X154884894Y-75271500D01*
X154951933Y-75291185D01*
X154987996Y-75326610D01*
X155021397Y-75376599D01*
X155021398Y-75376599D01*
X155021399Y-75376601D01*
X155104260Y-75431966D01*
X155104264Y-75431967D01*
X155177321Y-75446499D01*
X155177324Y-75446500D01*
X155177326Y-75446500D01*
X156276676Y-75446500D01*
X156276677Y-75446499D01*
X156349740Y-75431966D01*
X156432601Y-75376601D01*
X156487966Y-75293740D01*
X156502500Y-75220674D01*
X156502500Y-74521326D01*
X156502500Y-74521323D01*
X156502499Y-74521321D01*
X156487967Y-74448264D01*
X156487966Y-74448260D01*
X156458781Y-74404581D01*
X156432601Y-74365399D01*
X156349740Y-74310034D01*
X156349739Y-74310033D01*
X156349735Y-74310032D01*
X156276677Y-74295500D01*
X156276674Y-74295500D01*
X155177326Y-74295500D01*
X155177323Y-74295500D01*
X155104264Y-74310032D01*
X155104260Y-74310033D01*
X155021397Y-74365400D01*
X154987996Y-74415390D01*
X154934384Y-74460196D01*
X154884894Y-74470500D01*
X152444106Y-74470500D01*
X152377067Y-74450815D01*
X152341004Y-74415390D01*
X152307602Y-74365400D01*
X152224739Y-74310033D01*
X152224735Y-74310032D01*
X152151677Y-74295500D01*
X152151674Y-74295500D01*
X151806468Y-74295500D01*
X151766736Y-74287597D01*
X151766613Y-74288060D01*
X151759557Y-74286169D01*
X151759018Y-74286062D01*
X151758762Y-74285956D01*
X151758760Y-74285955D01*
X151602001Y-74265318D01*
X151601999Y-74265318D01*
X151445239Y-74285955D01*
X151445238Y-74285956D01*
X151444981Y-74286062D01*
X151444442Y-74286169D01*
X151437387Y-74288060D01*
X151437263Y-74287597D01*
X151397532Y-74295500D01*
X151052323Y-74295500D01*
X150979264Y-74310032D01*
X150979260Y-74310033D01*
X150896399Y-74365399D01*
X150841033Y-74448260D01*
X150841032Y-74448264D01*
X150826500Y-74521321D01*
X145468704Y-74521321D01*
X145596764Y-74404579D01*
X145719673Y-74241821D01*
X145810582Y-74059250D01*
X145866397Y-73863083D01*
X145885215Y-73660000D01*
X145866397Y-73456917D01*
X145810582Y-73260750D01*
X145802093Y-73243702D01*
X145740977Y-73120964D01*
X145719673Y-73078179D01*
X145596764Y-72915421D01*
X145596762Y-72915418D01*
X145446041Y-72778019D01*
X145446039Y-72778017D01*
X145272642Y-72670655D01*
X145272635Y-72670651D01*
X145177546Y-72633814D01*
X145082456Y-72596976D01*
X144881976Y-72559500D01*
X144678024Y-72559500D01*
X144477544Y-72596976D01*
X144477541Y-72596976D01*
X144477541Y-72596977D01*
X144287364Y-72670651D01*
X144287357Y-72670655D01*
X144113960Y-72778017D01*
X144113958Y-72778019D01*
X143963237Y-72915418D01*
X143840327Y-73078178D01*
X143791500Y-73176236D01*
X143743997Y-73227473D01*
X143676334Y-73244894D01*
X143609994Y-73222968D01*
X143566039Y-73168657D01*
X143556500Y-73120964D01*
X143556500Y-71659035D01*
X143576185Y-71591996D01*
X143628989Y-71546241D01*
X143698147Y-71536297D01*
X143761703Y-71565322D01*
X143791500Y-71603763D01*
X143840327Y-71701821D01*
X143963237Y-71864581D01*
X144113958Y-72001980D01*
X144113960Y-72001982D01*
X144213141Y-72063392D01*
X144287363Y-72109348D01*
X144477544Y-72183024D01*
X144678024Y-72220500D01*
X144678026Y-72220500D01*
X144881974Y-72220500D01*
X144881976Y-72220500D01*
X145082456Y-72183024D01*
X145272637Y-72109348D01*
X145446041Y-72001981D01*
X145596764Y-71864579D01*
X145719673Y-71701821D01*
X145810582Y-71519250D01*
X145866397Y-71323083D01*
X145885215Y-71120000D01*
X145866397Y-70916917D01*
X145810582Y-70720750D01*
X145802093Y-70703702D01*
X145740977Y-70580964D01*
X145719673Y-70538179D01*
X145596764Y-70375421D01*
X145596762Y-70375418D01*
X145446041Y-70238019D01*
X145446039Y-70238017D01*
X145272642Y-70130655D01*
X145272635Y-70130651D01*
X145177546Y-70093814D01*
X145082456Y-70056976D01*
X144881976Y-70019500D01*
X144678024Y-70019500D01*
X144477544Y-70056976D01*
X144477541Y-70056976D01*
X144477541Y-70056977D01*
X144287364Y-70130651D01*
X144287357Y-70130655D01*
X144113960Y-70238017D01*
X144113958Y-70238019D01*
X143963237Y-70375418D01*
X143840327Y-70538178D01*
X143791500Y-70636236D01*
X143743997Y-70687473D01*
X143676334Y-70704894D01*
X143609994Y-70682968D01*
X143566039Y-70628657D01*
X143556500Y-70580964D01*
X143556500Y-69119035D01*
X143576185Y-69051996D01*
X143628989Y-69006241D01*
X143698147Y-68996297D01*
X143761703Y-69025322D01*
X143791500Y-69063763D01*
X143840327Y-69161821D01*
X143963237Y-69324581D01*
X144113958Y-69461980D01*
X144113960Y-69461982D01*
X144213141Y-69523392D01*
X144287363Y-69569348D01*
X144477544Y-69643024D01*
X144678024Y-69680500D01*
X144678026Y-69680500D01*
X144881974Y-69680500D01*
X144881976Y-69680500D01*
X145082456Y-69643024D01*
X145272637Y-69569348D01*
X145446041Y-69461981D01*
X145596764Y-69324579D01*
X145719673Y-69161821D01*
X145810582Y-68979250D01*
X145866397Y-68783083D01*
X145885215Y-68580000D01*
X145866397Y-68376917D01*
X145810582Y-68180750D01*
X145802093Y-68163702D01*
X145740977Y-68040964D01*
X145719673Y-67998179D01*
X145596764Y-67835421D01*
X145596762Y-67835418D01*
X145446041Y-67698019D01*
X145446039Y-67698017D01*
X145272642Y-67590655D01*
X145272635Y-67590651D01*
X145177546Y-67553814D01*
X145082456Y-67516976D01*
X144881976Y-67479500D01*
X144678024Y-67479500D01*
X144477544Y-67516976D01*
X144477541Y-67516976D01*
X144477541Y-67516977D01*
X144287364Y-67590651D01*
X144287357Y-67590655D01*
X144113960Y-67698017D01*
X144113958Y-67698019D01*
X143963237Y-67835418D01*
X143840327Y-67998178D01*
X143791500Y-68096236D01*
X143743997Y-68147473D01*
X143676334Y-68164894D01*
X143609994Y-68142968D01*
X143566039Y-68088657D01*
X143556500Y-68040964D01*
X143556500Y-67173697D01*
X143576185Y-67106658D01*
X143628989Y-67060903D01*
X143698147Y-67050959D01*
X143749390Y-67070595D01*
X143832256Y-67125964D01*
X143832258Y-67125964D01*
X143832260Y-67125966D01*
X143832262Y-67125966D01*
X143832264Y-67125967D01*
X143905321Y-67140499D01*
X143905324Y-67140500D01*
X143905326Y-67140500D01*
X145654676Y-67140500D01*
X145654677Y-67140499D01*
X145727740Y-67125966D01*
X145810601Y-67070601D01*
X145865966Y-66987740D01*
X145880500Y-66914674D01*
X145880500Y-65165326D01*
X145880500Y-65165323D01*
X145880499Y-65165321D01*
X148759500Y-65165321D01*
X148759500Y-66914678D01*
X148774032Y-66987735D01*
X148774033Y-66987739D01*
X148774034Y-66987740D01*
X148829399Y-67070601D01*
X148903602Y-67120181D01*
X148912260Y-67125966D01*
X148912264Y-67125967D01*
X148985321Y-67140499D01*
X148985324Y-67140500D01*
X148985326Y-67140500D01*
X150734676Y-67140500D01*
X150734677Y-67140499D01*
X150807740Y-67125966D01*
X150890601Y-67070601D01*
X150945966Y-66987740D01*
X150960500Y-66914674D01*
X150960500Y-66039999D01*
X151294785Y-66039999D01*
X151294785Y-66040000D01*
X151313602Y-66243082D01*
X151369417Y-66439247D01*
X151369422Y-66439260D01*
X151460327Y-66621821D01*
X151583237Y-66784581D01*
X151733958Y-66921980D01*
X151733960Y-66921982D01*
X151833141Y-66983392D01*
X151907363Y-67029348D01*
X152097544Y-67103024D01*
X152298024Y-67140500D01*
X152298026Y-67140500D01*
X152501974Y-67140500D01*
X152501976Y-67140500D01*
X152702456Y-67103024D01*
X152892637Y-67029348D01*
X153066041Y-66921981D01*
X153216764Y-66784579D01*
X153339673Y-66621821D01*
X153430582Y-66439250D01*
X153486397Y-66243083D01*
X153505215Y-66040000D01*
X153499115Y-65974174D01*
X153493632Y-65914999D01*
X153846869Y-65914999D01*
X153846870Y-65915000D01*
X154455856Y-65915000D01*
X154440000Y-65974174D01*
X154440000Y-66105826D01*
X154455856Y-66165000D01*
X153846870Y-66165000D01*
X153854097Y-66242989D01*
X153854097Y-66242992D01*
X153909883Y-66439063D01*
X153909886Y-66439069D01*
X154000754Y-66621556D01*
X154123608Y-66784242D01*
X154274260Y-66921578D01*
X154447584Y-67028897D01*
X154637678Y-67102539D01*
X154815000Y-67135686D01*
X154815000Y-66524144D01*
X154874174Y-66540000D01*
X155005826Y-66540000D01*
X155065000Y-66524144D01*
X155065000Y-67135686D01*
X155242321Y-67102539D01*
X155432415Y-67028897D01*
X155605739Y-66921578D01*
X155756391Y-66784242D01*
X155879245Y-66621556D01*
X155970113Y-66439069D01*
X155970116Y-66439063D01*
X156025902Y-66242992D01*
X156025902Y-66242989D01*
X156033130Y-66165000D01*
X155424144Y-66165000D01*
X155440000Y-66105826D01*
X155440000Y-66039999D01*
X156374785Y-66039999D01*
X156374785Y-66040000D01*
X156393602Y-66243082D01*
X156449417Y-66439247D01*
X156449422Y-66439260D01*
X156540327Y-66621821D01*
X156663237Y-66784581D01*
X156813958Y-66921980D01*
X156813960Y-66921982D01*
X156913141Y-66983392D01*
X156987363Y-67029348D01*
X157177544Y-67103024D01*
X157378024Y-67140500D01*
X157378026Y-67140500D01*
X157581974Y-67140500D01*
X157581976Y-67140500D01*
X157782456Y-67103024D01*
X157972637Y-67029348D01*
X158146041Y-66921981D01*
X158296764Y-66784579D01*
X158419673Y-66621821D01*
X158510582Y-66439250D01*
X158566397Y-66243083D01*
X158585215Y-66040000D01*
X158579115Y-65974174D01*
X158566397Y-65836917D01*
X158510582Y-65640750D01*
X158510159Y-65639901D01*
X158419804Y-65458443D01*
X158419673Y-65458179D01*
X158296764Y-65295421D01*
X158296762Y-65295418D01*
X158146041Y-65158019D01*
X158146039Y-65158017D01*
X157972642Y-65050655D01*
X157972635Y-65050651D01*
X157783705Y-64977460D01*
X157782456Y-64976976D01*
X157581976Y-64939500D01*
X157378024Y-64939500D01*
X157177544Y-64976976D01*
X157177541Y-64976976D01*
X157177541Y-64976977D01*
X156987364Y-65050651D01*
X156987357Y-65050655D01*
X156813960Y-65158017D01*
X156813958Y-65158019D01*
X156663237Y-65295418D01*
X156540327Y-65458178D01*
X156449422Y-65640739D01*
X156449417Y-65640752D01*
X156393602Y-65836917D01*
X156374785Y-66039999D01*
X155440000Y-66039999D01*
X155440000Y-65974174D01*
X155424144Y-65915000D01*
X156033130Y-65915000D01*
X156033130Y-65914999D01*
X156025902Y-65837010D01*
X156025902Y-65837007D01*
X155970116Y-65640936D01*
X155970113Y-65640930D01*
X155879245Y-65458443D01*
X155756391Y-65295757D01*
X155605739Y-65158421D01*
X155432415Y-65051102D01*
X155242321Y-64977460D01*
X155065000Y-64944312D01*
X155065000Y-65555855D01*
X155005826Y-65540000D01*
X154874174Y-65540000D01*
X154815000Y-65555855D01*
X154815000Y-64944312D01*
X154637678Y-64977460D01*
X154447584Y-65051102D01*
X154274260Y-65158421D01*
X154123608Y-65295757D01*
X154000754Y-65458443D01*
X153909886Y-65640930D01*
X153909883Y-65640936D01*
X153854097Y-65837007D01*
X153854097Y-65837010D01*
X153846869Y-65914999D01*
X153493632Y-65914999D01*
X153486397Y-65836917D01*
X153430582Y-65640750D01*
X153430159Y-65639901D01*
X153339804Y-65458443D01*
X153339673Y-65458179D01*
X153216764Y-65295421D01*
X153216762Y-65295418D01*
X153066041Y-65158019D01*
X153066039Y-65158017D01*
X152892642Y-65050655D01*
X152892635Y-65050651D01*
X152703705Y-64977460D01*
X152702456Y-64976976D01*
X152501976Y-64939500D01*
X152298024Y-64939500D01*
X152097544Y-64976976D01*
X152097541Y-64976976D01*
X152097541Y-64976977D01*
X151907364Y-65050651D01*
X151907357Y-65050655D01*
X151733960Y-65158017D01*
X151733958Y-65158019D01*
X151583237Y-65295418D01*
X151460327Y-65458178D01*
X151369422Y-65640739D01*
X151369417Y-65640752D01*
X151313602Y-65836917D01*
X151294785Y-66039999D01*
X150960500Y-66039999D01*
X150960500Y-65165326D01*
X150960500Y-65165323D01*
X150960499Y-65165321D01*
X150945967Y-65092264D01*
X150945966Y-65092260D01*
X150890601Y-65009399D01*
X150807740Y-64954034D01*
X150807739Y-64954033D01*
X150807735Y-64954032D01*
X150734677Y-64939500D01*
X150734674Y-64939500D01*
X148985326Y-64939500D01*
X148985323Y-64939500D01*
X148912264Y-64954032D01*
X148912260Y-64954033D01*
X148829399Y-65009399D01*
X148774033Y-65092260D01*
X148774032Y-65092264D01*
X148759500Y-65165321D01*
X145880499Y-65165321D01*
X145865967Y-65092264D01*
X145865966Y-65092260D01*
X145810601Y-65009399D01*
X145727740Y-64954034D01*
X145727739Y-64954033D01*
X145727735Y-64954032D01*
X145654677Y-64939500D01*
X145654674Y-64939500D01*
X143905326Y-64939500D01*
X143905323Y-64939500D01*
X143832264Y-64954032D01*
X143832260Y-64954033D01*
X143749390Y-65009405D01*
X143682712Y-65030282D01*
X143615332Y-65011797D01*
X143568643Y-64959817D01*
X143556500Y-64906302D01*
X143556500Y-64813500D01*
X143576185Y-64746461D01*
X143628989Y-64700706D01*
X143680500Y-64689500D01*
X154839949Y-64689500D01*
X154842487Y-64690245D01*
G37*
%TD.AperFunction*%
%TA.AperFunction,Conductor*%
G36*
X163730006Y-84257031D02*
G01*
X163773961Y-84311342D01*
X163783500Y-84359035D01*
X163783500Y-85822087D01*
X163763815Y-85889126D01*
X163711011Y-85934881D01*
X163641853Y-85944825D01*
X163578297Y-85915800D01*
X163548500Y-85877359D01*
X163499245Y-85778443D01*
X163376391Y-85615757D01*
X163225739Y-85478421D01*
X163052415Y-85371102D01*
X162862321Y-85297460D01*
X162685000Y-85264312D01*
X162685000Y-85875855D01*
X162625826Y-85860000D01*
X162494174Y-85860000D01*
X162435000Y-85875855D01*
X162435000Y-85264312D01*
X162257678Y-85297460D01*
X162067584Y-85371102D01*
X161949778Y-85444045D01*
X161882417Y-85462601D01*
X161815718Y-85441792D01*
X161770856Y-85388227D01*
X161760500Y-85338618D01*
X161760500Y-85237254D01*
X161780185Y-85170215D01*
X161796815Y-85149577D01*
X162060455Y-84885936D01*
X162121776Y-84852453D01*
X162191467Y-84857437D01*
X162192927Y-84857992D01*
X162257538Y-84883022D01*
X162257539Y-84883022D01*
X162257544Y-84883024D01*
X162458024Y-84920500D01*
X162458026Y-84920500D01*
X162661974Y-84920500D01*
X162661976Y-84920500D01*
X162862456Y-84883024D01*
X163052637Y-84809348D01*
X163226041Y-84701981D01*
X163376764Y-84564579D01*
X163499673Y-84401821D01*
X163548500Y-84303763D01*
X163596003Y-84252526D01*
X163663666Y-84235105D01*
X163730006Y-84257031D01*
G37*
%TD.AperFunction*%
%TD*%
M02*
